<?xml version="1.0" encoding="UTF-8"?><svg xmlns="http://www.w3.org/2000/svg" xmlns:xlink="http://www.w3.org/1999/xlink" width="375pt" zoomAndPan="magnify" viewBox="0 0 375 374.999991" height="374.999991pt" preserveAspectRatio="xMidYMid meet" version="1.2"><defs><g/><clipPath xml:id="clip1" id="clip1"><path d="M 137 51.054688 L 157 51.054688 L 157 70 L 137 70 Z M 137 51.054688 "/></clipPath><clipPath xml:id="clip2" id="clip2"><path d="M 99.914062 163 L 119 163 L 119 183 L 99.914062 183 Z M 99.914062 163 "/></clipPath><clipPath xml:id="clip3" id="clip3"><path d="M 268 173 L 275.414062 173 L 275.414062 181 L 268 181 Z M 268 173 "/></clipPath></defs><g xml:id="surface1" id="surface1"><rect x="0" width="375" y="0" height="374.999991" style="fill:rgb(100%,100%,100%);fill-opacity:1;stroke:none;"/><rect x="0" width="375" y="0" height="374.999991" style="fill:rgb(100%,100%,100%);fill-opacity:1;stroke:none;"/><rect x="0" width="375" y="0" height="374.999991" style="fill:rgb(90.979004%,94.509888%,89.019775%);fill-opacity:1;stroke:none;"/><g style="fill:rgb(12.159729%,39.608765%,39.99939%);fill-opacity:1;"><g transform="translate(81.035435, 273.297762)"><path style="stroke:none;" d="M 21.238281 4.34375 C 21.542969 4.039062 21.175781 3.761719 21.285156 3.441406 C 21.441406 2.675781 21.472656 1.816406 21.492188 1.003906 C 21.496094 0.390625 21.863281 -0.25 21.652344 -0.832031 C 21.851562 -1.582031 22.132812 -2.410156 21.890625 -3.207031 C 21.9375 -3.804688 22.136719 -4.402344 22.140625 -5.015625 C 22.40625 -6.101562 22.195312 -7.296875 22.75 -8.335938 C 22.75 -9.101562 23.042969 -9.824219 22.941406 -10.574219 C 23.390625 -12.824219 23.875 -15.011719 24.417969 -17.234375 C 24.417969 -17.386719 24.464844 -17.523438 24.480469 -17.722656 C 24.496094 -17.769531 24.511719 -17.816406 24.527344 -17.859375 C 24.605469 -19.011719 24.933594 -20.128906 25.105469 -21.246094 C 25.105469 -22.164062 25.460938 -23.066406 25.464844 -23.988281 C 25.761719 -25.011719 25.902344 -26.039062 25.675781 -27.035156 C 25.859375 -27.585938 25.296875 -28.03125 25.082031 -28.460938 C 24.640625 -28.816406 24.179688 -29.125 23.796875 -29.507812 C 22.648438 -29.433594 21.441406 -29.945312 20.367188 -29.335938 C 20.304688 -29.152344 20.148438 -29 19.980469 -28.953125 C 19.472656 -28.203125 18.875 -27.484375 18.242188 -26.828125 C 17.886719 -26.078125 17.089844 -25.683594 16.644531 -24.964844 C 15.875 -23.894531 14.90625 -22.996094 14.105469 -21.984375 C 13.84375 -21.359375 13.367188 -20.855469 12.890625 -20.503906 C 11.765625 -18.683594 10.199219 -17.066406 9.289062 -15.121094 C 8.75 -14.433594 8.332031 -13.65625 7.796875 -12.96875 C 7.210938 -12.140625 6.839844 -11.191406 6.285156 -10.304688 C 5.746094 -9.160156 4.824219 -8.242188 4.359375 -7.019531 C 3.957031 -5.976562 3.417969 -4.984375 2.941406 -4.019531 C 2.292969 -3.46875 2.335938 -2.535156 1.828125 -1.941406 C 1.628906 -1.496094 1.65625 -0.820312 1.195312 -0.515625 C 1.257812 -0.394531 1.304688 -0.226562 1.363281 -0.101562 C 2.039062 0.175781 2.402344 0.910156 3.136719 1.007812 C 3.660156 0.976562 3.808594 1.589844 4.347656 1.515625 C 4.867188 1.488281 5.375 1.351562 5.832031 1.351562 C 6.03125 1.0625 6.308594 1 6.617188 1.003906 C 6.800781 0.605469 7.414062 0.453125 7.246094 -0.113281 C 7.234375 -0.835938 7.863281 -1.339844 8.003906 -2.058594 C 8.296875 -2.316406 8.390625 -2.746094 8.511719 -3.113281 C 9.144531 -3.617188 9.328125 -4.472656 9.667969 -5.175781 C 9.761719 -5.453125 10.070312 -5.757812 9.980469 -6.097656 C 9.980469 -6.402344 10.257812 -6.617188 10.546875 -6.570312 C 10.746094 -6.398438 10.945312 -6.230469 11.203125 -6.09375 C 12.105469 -5.738281 12.980469 -5.289062 13.789062 -4.8125 C 14.648438 -4.777344 15.351562 -4.285156 16.101562 -3.929688 C 16.050781 -2.414062 15.9375 -0.867188 15.792969 0.617188 C 15.667969 1.445312 15.574219 2.332031 15.710938 3.144531 C 15.9375 3.222656 16.121094 3.4375 15.984375 3.546875 C 16.015625 3.605469 16.089844 3.683594 16.105469 3.789062 C 16.625 4.222656 16.484375 5.246094 17.15625 5.527344 C 17.890625 6.386719 19.144531 6.453125 20.1875 6.394531 C 20.480469 6.132812 20.894531 5.96875 21.078125 5.570312 C 21.355469 5.203125 21.144531 4.773438 21.238281 4.34375 Z M 16.558594 -7.867188 C 15.640625 -8.175781 14.765625 -8.625 13.910156 -9.117188 C 13.269531 -9.179688 13.023438 -9.824219 12.519531 -10.148438 C 12.660156 -10.714844 13.105469 -11.125 13.460938 -11.570312 C 13.722656 -12.042969 14.074219 -12.488281 14.367188 -12.898438 C 14.875 -13.496094 15 -14.324219 15.554688 -14.902344 C 15.753906 -15.039062 15.539062 -15.316406 15.722656 -15.40625 C 16.125 -15.835938 16.476562 -16.277344 16.953125 -16.628906 C 16.988281 -17.335938 17.585938 -17.59375 17.878906 -18.160156 C 17.96875 -18.28125 18.0625 -18.402344 18.199219 -18.511719 C 18.355469 -18.507812 18.429688 -18.433594 18.445312 -18.324219 C 17.777344 -15.890625 17.355469 -13.425781 17.027344 -10.929688 C 16.640625 -9.933594 16.851562 -8.894531 16.558594 -7.867188 Z M 16.558594 -7.867188 "/></g></g><g style="fill:rgb(12.159729%,39.608765%,39.99939%);fill-opacity:1;"><g transform="translate(103.409153, 280.739904)"><path style="stroke:none;" d="M 22.820312 -16.214844 C 22.738281 -17.238281 21.875 -17.964844 21.628906 -18.929688 C 21 -19.597656 19.96875 -19.667969 19.113281 -19.839844 C 18.417969 -19.671875 17.6875 -19.761719 17.019531 -19.886719 C 16.855469 -19.828125 16.746094 -19.609375 16.574219 -19.703125 C 15.371094 -19.515625 14.28125 -18.800781 13.3125 -18.152344 C 13.585938 -18.632812 13.6875 -19.207031 13.835938 -19.769531 C 13.664062 -20.265625 13.433594 -20.726562 13.324219 -21.253906 C 13.171875 -21.445312 12.925781 -21.660156 13 -21.941406 C 12.640625 -22.285156 12.207031 -22.546875 11.859375 -22.9375 C 12.074219 -23.183594 11.59375 -23.257812 11.40625 -23.308594 C 10.457031 -23.707031 9.460938 -23.917969 8.453125 -24.082031 C 7.679688 -24.382812 8.160156 -23.15625 7.757812 -22.761719 C 7.339844 -22.117188 7.222656 -21.296875 6.792969 -20.609375 C 6.695312 -20.433594 6.753906 -20.269531 6.707031 -20.082031 C 6.175781 -19.015625 5.789062 -17.917969 5.574219 -16.71875 C 5.46875 -16.5 5.253906 -16.253906 5.179688 -15.972656 C 4.960938 -14.175781 4.320312 -12.492188 3.960938 -10.734375 C 3.78125 -10.429688 3.917969 -9.992188 3.738281 -9.691406 C 3.523438 -9.445312 3.835938 -9.113281 3.65625 -8.808594 C 3.289062 -7.402344 3.261719 -5.957031 3.175781 -4.476562 C 3.367188 -3.675781 3.25 -2.855469 3.277344 -1.996094 C 3.28125 -1.246094 3.859375 -0.59375 3.851562 0.207031 C 4.214844 0.351562 4.539062 0.636719 4.582031 1.046875 C 5.3125 0.9375 5.761719 1.707031 6.445312 1.785156 C 6.777344 1.472656 7.152344 1.570312 7.546875 1.773438 C 7.761719 1.53125 8.046875 1.402344 8.410156 1.546875 C 8.6875 0.671875 8.640625 -0.292969 8.71875 -1.175781 C 8.570312 -2.316406 9.0625 -3.4375 9.15625 -4.566406 C 9.210938 -5.351562 9.222656 -6.152344 9.523438 -6.925781 C 9.824219 -7.496094 9.703125 -8.179688 10.046875 -8.738281 C 9.824219 -9.601562 10.59375 -10.25 10.707031 -11.070312 C 10.800781 -11.046875 10.894531 -11.023438 11.035156 -10.984375 C 11.691406 -11.765625 12.71875 -12.246094 13.675781 -12.648438 C 14.691406 -13.085938 15.835938 -13.4375 16.914062 -13.355469 C 16.972656 -13.386719 17.019531 -13.375 17.066406 -13.363281 C 18.296875 -14.042969 19.6875 -14.382812 21.019531 -14.882812 C 21.792969 -14.582031 23.105469 -15.191406 22.820312 -16.214844 Z M 22.820312 -16.214844 "/></g></g><g style="fill:rgb(12.159729%,39.608765%,39.99939%);fill-opacity:1;"><g transform="translate(122.592508, 285.72949)"><path style="stroke:none;" d="M 22.066406 -19.921875 C 22.316406 -20.960938 21.769531 -21.957031 21.359375 -22.875 C 21.089844 -23.273438 21.042969 -23.777344 20.652344 -24.050781 C 19.878906 -24.398438 19.023438 -24.566406 18.195312 -24.875 C 17.917969 -24.980469 17.738281 -25.3125 17.9375 -25.570312 C 18.019531 -26.246094 18.480469 -26.84375 18.429688 -27.59375 C 18.683594 -28.386719 19.042969 -29.203125 18.914062 -30.066406 C 18.789062 -30.4375 18.617188 -30.816406 18.492188 -31.1875 C 18.367188 -31.558594 17.625 -31.800781 17.898438 -32.191406 C 17.671875 -32.285156 17.441406 -32.378906 17.214844 -32.472656 C 16.976562 -32.519531 16.699219 -32.625 16.394531 -32.585938 C 16.347656 -32.59375 16.273438 -32.707031 16.1875 -32.773438 C 16.089844 -32.792969 15.996094 -32.8125 15.851562 -32.839844 C 15.851562 -32.839844 15.804688 -32.847656 15.804688 -32.847656 C 15.710938 -32.867188 15.605469 -32.839844 15.558594 -32.847656 C 15.121094 -32.882812 14.664062 -32.824219 14.265625 -32.804688 C 14.21875 -32.8125 14.011719 -32.753906 14.011719 -32.753906 C 13.953125 -32.71875 13.90625 -32.726562 13.800781 -32.699219 C 13.792969 -32.648438 13.726562 -32.5625 13.667969 -32.527344 C 13.605469 -32.191406 13.328125 -31.800781 13.40625 -31.441406 C 12.804688 -29.878906 12.433594 -28.226562 12.011719 -26.582031 C 11.859375 -26.3125 11.492188 -26.1875 11.160156 -26.253906 C 10.5 -26.429688 9.847656 -26.363281 9.191406 -26.539062 C 8.582031 -26.707031 8.039062 -26.46875 7.453125 -26.484375 C 6.246094 -25.882812 5.890625 -24.566406 5.601562 -23.339844 C 5.308594 -22.855469 5.777344 -22.46875 5.683594 -21.992188 C 5.894531 -21.554688 6.085938 -21.023438 6.542969 -20.835938 C 7.507812 -20.203125 8.851562 -20.78125 9.855469 -20.089844 C 9.535156 -19.214844 9.253906 -18.28125 8.933594 -17.40625 C 8.429688 -15.828125 8.054688 -14.171875 7.5 -12.601562 C 7.296875 -11.804688 7.222656 -10.929688 6.921875 -10.148438 C 6.386719 -8.671875 6.621094 -7.097656 6.371094 -5.566406 C 6.648438 -4.96875 6.433594 -4.371094 6.617188 -3.789062 C 6.800781 -3.210938 6.832031 -2.613281 6.910156 -2.003906 C 7.136719 -1.664062 7.3125 -1.285156 7.492188 -0.953125 C 7.835938 -0.6875 8.234375 -0.460938 8.398438 -0.0351562 C 8.421875 0.363281 9.039062 0.238281 9.113281 0.597656 C 9.421875 1.054688 9.785156 1.46875 10.296875 1.621094 C 10.78125 1.664062 11.070312 2.214844 11.554688 2.261719 C 12.324219 2.363281 13.113281 2.367188 13.863281 2.316406 C 14.320312 2.011719 14.925781 1.933594 15.210938 1.492188 C 15.1875 1.09375 15.0625 0.726562 15.1875 0.355469 C 14.984375 -0.128906 14.5 -0.421875 14.183594 -0.828125 C 13.746094 -1.113281 12.984375 -1.015625 12.800781 -1.59375 C 12.574219 -1.6875 12.289062 -1.742188 12.003906 -1.800781 C 11.945312 -2.253906 11.789062 -2.730469 11.890625 -3.253906 C 11.785156 -3.71875 11.6875 -4.230469 11.839844 -4.742188 C 11.96875 -5.164062 11.71875 -5.65625 12.003906 -6.09375 C 12.527344 -7.769531 12.625 -9.527344 13.292969 -11.171875 C 13.746094 -12.21875 14.015625 -13.351562 14.277344 -14.4375 C 14.824219 -15.21875 14.925781 -16.234375 15.300781 -17.148438 C 15.71875 -17.757812 15.511719 -18.738281 16.109375 -19.261719 C 17.148438 -19.011719 18.144531 -18.566406 19.191406 -18.363281 C 19.761719 -18.25 20.039062 -17.652344 20.707031 -17.769531 C 21.3125 -18.34375 22.078125 -18.984375 22.066406 -19.921875 Z M 22.066406 -19.921875 "/></g></g><g style="fill:rgb(12.159729%,39.608765%,39.99939%);fill-opacity:1;"><g transform="translate(151.885728, 291.055063)"><path style="stroke:none;" d="M 25.324219 -8.667969 C 25.429688 -9.339844 25.089844 -9.90625 25.195312 -10.527344 C 24.835938 -11.433594 24.429688 -12.347656 23.917969 -13.167969 C 23.46875 -14.132812 22.492188 -14.65625 22.039062 -15.574219 C 21.625 -15.851562 21.210938 -16.132812 20.851562 -16.453125 C 20.671875 -16.617188 20.199219 -16.753906 20.421875 -17.078125 C 20.726562 -17.242188 21.085938 -17.457031 21.351562 -17.722656 C 22.652344 -19.214844 23.59375 -21.078125 23.910156 -23.042969 C 23.871094 -23.679688 23.824219 -24.265625 23.832031 -24.898438 C 23.730469 -25.976562 23.074219 -26.8125 22.773438 -27.8125 C 22.46875 -28.230469 22.324219 -28.777344 21.910156 -29.054688 C 20.785156 -30.613281 19.402344 -32.046875 17.71875 -32.828125 C 17.125 -33.269531 16.367188 -33.484375 15.773438 -33.925781 C 15.824219 -33.96875 15.832031 -34.066406 15.886719 -34.109375 C 14.132812 -34.066406 12.4375 -34.703125 10.683594 -34.664062 C 10.191406 -34.074219 9.40625 -34.53125 8.84375 -34.242188 C 8.351562 -34.140625 7.296875 -34.863281 7.121094 -34.003906 C 6.316406 -33.683594 5.347656 -33.722656 4.539062 -33.402344 C 4.738281 -32.898438 4.9375 -32.394531 5.085938 -31.847656 C 5.515625 -31.761719 5.71875 -31.304688 5.933594 -30.996094 C 6.535156 -30.066406 5.625 -29.125 5.585938 -28.15625 C 5.203125 -27.121094 5.148438 -25.910156 4.625 -24.933594 C 4.625 -24.398438 4.386719 -23.882812 4.242188 -23.363281 C 3.894531 -22.175781 3.886719 -20.960938 3.492188 -19.828125 C 3 -17.539062 2.746094 -15.175781 2.253906 -12.933594 C 2.199219 -11.1875 1.707031 -9.480469 1.75 -7.726562 C 1.816406 -5.726562 1.53125 -3.609375 2.144531 -1.707031 C 2.332031 -1.644531 2.417969 -1.488281 2.550781 -1.332031 C 3.132812 -0.792969 3.828125 -0.394531 4.53125 -0.0898438 C 4.917969 -0.0546875 5.273438 -0.21875 5.652344 -0.136719 C 5.964844 -0.351562 6.316406 -0.464844 6.628906 -0.730469 C 6.804688 -1.054688 6.792969 -1.496094 6.625 -1.800781 C 6.824219 -3.484375 6.683594 -5.199219 6.875 -6.835938 C 7.175781 -8.027344 6.992188 -9.257812 7.429688 -10.386719 C 7.542969 -10.570312 7.367188 -10.78125 7.480469 -10.964844 C 7.921875 -12.09375 7.6875 -13.332031 8.03125 -14.46875 C 8.28125 -15.078125 8.195312 -15.769531 8.539062 -16.371094 C 8.8125 -17.804688 9.175781 -19.183594 9.351562 -20.628906 C 9.796875 -21.804688 10.191406 -22.984375 10.394531 -24.183594 C 10.402344 -24.28125 10.402344 -24.28125 10.453125 -24.324219 C 10.457031 -24.371094 10.457031 -24.371094 10.464844 -24.421875 C 10.464844 -24.421875 10.414062 -24.425781 10.414062 -24.425781 C 10.5625 -24.996094 10.898438 -25.5 10.996094 -26.074219 C 11.144531 -27.179688 11.769531 -28.195312 11.914062 -29.300781 C 12.039062 -29.632812 12.425781 -29.597656 12.675781 -29.671875 C 13.296875 -29.570312 13.863281 -29.910156 14.488281 -29.804688 C 15 -29.566406 15.699219 -29.746094 16.097656 -29.324219 C 17.046875 -29.046875 17.652344 -28.214844 18.21875 -27.433594 C 18.929688 -26.691406 18.933594 -25.621094 18.609375 -24.675781 C 18.148438 -23.890625 17.832031 -23.042969 17.234375 -22.316406 C 16.328125 -21.425781 15.3125 -20.394531 13.972656 -20.074219 C 12.839844 -19.929688 11.714844 -19.835938 10.609375 -19.980469 C 10.296875 -19.765625 10.542969 -19.257812 10.28125 -19.039062 C 9.8125 -18.691406 9.847656 -17.957031 10.050781 -17.5 C 10.394531 -16.984375 10.835938 -16.507812 11.027344 -15.90625 C 11.988281 -14.65625 13.648438 -14.167969 15.152344 -14.136719 C 15.953125 -13.820312 16.824219 -13.792969 17.628906 -13.527344 C 18.234375 -13.230469 19.042969 -13.015625 19.421875 -12.347656 C 19.667969 -11.839844 20.320312 -11.492188 20.113281 -10.828125 C 20.125 -9.855469 19.941406 -8.851562 19.523438 -7.964844 C 19.132812 -7.414062 18.925781 -6.703125 18.398438 -6.261719 C 17.753906 -5.539062 17.203125 -4.8125 16.382812 -4.347656 C 16 -3.847656 15.484375 -3.503906 14.929688 -3.308594 C 14.199219 -2.742188 13.265625 -2.628906 12.40625 -2.800781 C 12.085938 -3.023438 11.726562 -3.394531 11.28125 -3.289062 C 10.53125 -3.0625 9.886719 -4.042969 9.171875 -3.621094 C 9.171875 -3.085938 9.367188 -2.53125 9.5625 -1.980469 C 9.4375 -1.699219 9.554688 -1.347656 9.621094 -1.003906 C 10.074219 -0.621094 10.472656 -0.199219 10.769531 0.3125 C 11.328125 0.605469 11.722656 1.078125 12.339844 1.277344 C 13.402344 1.90625 14.683594 1.726562 15.871094 2.027344 C 16.21875 1.960938 16.527344 1.746094 16.863281 1.824219 C 17.316406 1.621094 17.761719 1.5625 18.171875 1.304688 C 18.675781 1.105469 19.269531 1.011719 19.6875 0.660156 C 19.960938 0.34375 20.367188 0.136719 20.761719 0.0742188 C 20.765625 -0.507812 21.402344 -0.597656 21.679688 -0.964844 C 22.199219 -1.355469 22.460938 -2.113281 23.113281 -2.347656 C 23.402344 -2.855469 23.78125 -3.308594 23.882812 -3.882812 C 24.484375 -4.121094 24.542969 -4.75 24.824219 -5.210938 C 24.871094 -5.742188 25.300781 -6.191406 25.152344 -6.738281 C 25.355469 -7.351562 25.558594 -8.015625 25.324219 -8.667969 Z M 25.324219 -8.667969 "/></g></g><g style="fill:rgb(12.159729%,39.608765%,39.99939%);fill-opacity:1;"><g transform="translate(178.347832, 293.275625)"><path style="stroke:none;" d="M 21.054688 -19.828125 C 21.011719 -20.554688 21.550781 -21.230469 21.363281 -21.957031 C 21.125 -22.203125 20.980469 -22.542969 20.839844 -22.835938 C 20.550781 -23.03125 20.257812 -23.179688 20.019531 -23.421875 C 19.683594 -23.863281 18.90625 -23.722656 18.71875 -24.355469 C 17.601562 -24.023438 16.351562 -25.003906 15.375 -24.140625 C 15.320312 -23.609375 15.171875 -23.125 15.023438 -22.59375 C 14.972656 -22.351562 15.210938 -22.109375 14.96875 -21.964844 C 14.769531 -21.386719 14.859375 -20.65625 14.613281 -20.03125 C 14.394531 -17.316406 13.789062 -14.660156 13.574219 -11.945312 C 13.761719 -11.265625 13.511719 -10.589844 13.554688 -9.914062 C 13.59375 -8.941406 13.199219 -7.976562 13.386719 -7.007812 C 12.949219 -6.914062 12.511719 -6.722656 12.3125 -6.289062 C 11.867188 -5.277344 11.035156 -4.265625 9.824219 -4.128906 C 9.722656 -3.890625 9.433594 -3.988281 9.289062 -4.136719 C 8.417969 -4.335938 7.554688 -4.972656 7.367188 -5.847656 C 6.945312 -7.59375 7.347656 -9.382812 7.21875 -11.179688 C 7.320312 -11.808594 7.664062 -12.433594 7.625 -13.113281 C 7.636719 -14.761719 8.523438 -16.351562 8.390625 -18 C 8.589844 -18.484375 8.691406 -19.015625 8.695312 -19.5 C 8.800781 -20.515625 9.003906 -21.53125 9.160156 -22.546875 C 9.066406 -22.9375 9.019531 -23.371094 8.78125 -23.761719 C 8.636719 -23.957031 8.394531 -24.007812 8.253906 -24.25 C 8.011719 -24.59375 7.335938 -24.597656 7.339844 -25.132812 C 6.808594 -25.28125 6.175781 -25.191406 5.695312 -25.484375 C 5.015625 -25.394531 4.386719 -25.542969 3.707031 -25.453125 C 3.609375 -25.261719 3.320312 -25.261719 3.125 -25.121094 C 2.925781 -24.78125 2.972656 -24.34375 2.871094 -23.910156 C 2.867188 -23.378906 2.667969 -22.847656 2.710938 -22.265625 C 2.210938 -20.425781 2.144531 -18.488281 1.792969 -16.652344 C 1.582031 -14.859375 1.082031 -13.074219 1.164062 -11.230469 C 1.304688 -10.648438 0.910156 -10.023438 1.195312 -9.4375 C 1.386719 -8.953125 1.1875 -8.371094 1.328125 -7.835938 C 1.324219 -7.449219 1.613281 -7.15625 1.65625 -6.769531 C 2.515625 -5.257812 3.230469 -3.558594 4.722656 -2.480469 C 5.011719 -2.476562 5.253906 -2.378906 5.398438 -2.132812 C 5.347656 -2.132812 5.300781 -2.132812 5.25 -2.136719 C 5.347656 -2.085938 5.492188 -2.035156 5.539062 -1.9375 C 6.460938 -1.832031 7.28125 -1.488281 8.199219 -1.382812 C 8.925781 -1.039062 9.699219 -1.222656 10.476562 -1.21875 C 11.054688 -0.921875 10.964844 -1.550781 11.351562 -1.597656 C 11.691406 -1.835938 12.320312 -1.636719 12.519531 -2.121094 C 12.761719 -2.410156 13.152344 -2.597656 13.445312 -2.789062 C 13.734375 -2.496094 13.488281 -2.0625 13.582031 -1.675781 C 13.613281 0.410156 13.445312 2.585938 12.703125 4.566406 C 12.503906 5.148438 12.015625 5.578125 11.671875 6.15625 C 11.28125 6.542969 10.886719 7.265625 10.160156 7.160156 C 9.679688 6.722656 9.636719 5.996094 9.742188 5.414062 C 10.035156 4.980469 10.476562 4.546875 10.285156 4.011719 C 10 3.429688 9.667969 2.699219 8.890625 2.839844 C 8.214844 2.398438 7.34375 2.535156 6.660156 2.820312 C 6.078125 2.960938 5.402344 2.953125 4.914062 3.335938 C 4.667969 3.722656 4.375 4.15625 4.417969 4.640625 C 4.363281 5.269531 4.746094 5.808594 4.886719 6.390625 C 5.222656 6.683594 5.21875 7.167969 5.554688 7.414062 C 5.988281 7.804688 6.082031 8.433594 6.5625 8.777344 C 6.898438 9.023438 7.1875 9.363281 7.425781 9.707031 C 7.8125 9.855469 8.199219 10.050781 8.535156 10.296875 C 8.632812 10.347656 8.679688 10.445312 8.726562 10.542969 C 8.871094 10.542969 9.066406 10.542969 9.210938 10.546875 C 10.230469 10.554688 11.144531 11.144531 12.164062 11.105469 C 12.402344 11.152344 12.695312 10.964844 12.9375 11.0625 C 13.324219 11.257812 13.472656 10.726562 13.8125 10.683594 C 14.15625 10.394531 14.878906 10.835938 14.882812 10.304688 C 15.808594 9.828125 16.445312 9.007812 17.175781 8.335938 C 17.375 8 17.472656 7.660156 17.71875 7.371094 C 17.914062 7.179688 17.917969 6.839844 18.207031 6.746094 C 18.214844 5.875 18.949219 5.203125 18.808594 4.328125 C 18.621094 3.890625 19.058594 3.507812 19.0625 3.070312 C 19.214844 2.539062 19.074219 2.007812 19.125 1.425781 C 19.417969 1.136719 19.179688 0.746094 19.230469 0.410156 C 19.429688 -0.269531 19.242188 -0.996094 19.25 -1.722656 C 19.738281 -1.914062 19.355469 -2.59375 19.261719 -2.984375 C 19.171875 -3.855469 19.324219 -4.726562 19.1875 -5.601562 C 19.144531 -6.230469 19.585938 -6.710938 19.539062 -7.292969 C 19.453125 -8.164062 19.605469 -8.988281 19.707031 -9.859375 C 19.71875 -10.972656 19.726562 -12.136719 20.078125 -13.246094 C 20.1875 -14.941406 20.445312 -16.636719 20.894531 -18.28125 C 20.609375 -18.816406 21.292969 -19.246094 21.054688 -19.828125 Z M 21.054688 -19.828125 "/></g></g><g style="fill:rgb(12.159729%,39.608765%,39.99939%);fill-opacity:1;"><g transform="translate(211.46171, 292.993145)"><path style="stroke:none;" d="M 1.226562 -35.800781 C 1.039062 -35.734375 0.703125 -35.652344 0.558594 -35.640625 C 0.414062 -35.140625 0.164062 -34.726562 0.210938 -34.242188 C 0.304688 -31.769531 0.257812 -29.28125 0.152344 -26.839844 C 0.269531 -25.144531 -0.101562 -23.453125 -0.078125 -21.753906 C 0.0976562 -19.921875 -0.0585938 -18.054688 0.0703125 -16.21875 C 0.0742188 -14.707031 -0.117188 -13.179688 0.0742188 -11.691406 C 0.160156 -8.828125 0.390625 -5.976562 0.714844 -3.136719 C 0.585938 -2.492188 1.339844 -2.222656 1.585938 -1.710938 C 1.867188 -1.300781 2.375 -1.109375 2.703125 -0.75 C 3.289062 -0.710938 3.769531 -0.269531 4.398438 -0.332031 C 5.152344 -0.0664062 5.652344 -0.941406 6.390625 -0.867188 C 6.746094 -1.195312 6.652344 -1.671875 6.960938 -1.996094 C 7 -3.605469 6.5 -5.210938 6.636719 -6.832031 C 6.382812 -7.4375 6.605469 -8.140625 6.351562 -8.75 C 6.640625 -9.265625 6.292969 -9.816406 6.386719 -10.359375 C 6.222656 -12.046875 6.347656 -13.761719 6.371094 -15.519531 C 6.242188 -15.847656 6.402344 -16.203125 6.511719 -16.554688 C 7.640625 -16.46875 8.785156 -16.726562 9.878906 -16.980469 C 10.8125 -16.878906 11.746094 -17.308594 12.722656 -17.257812 C 12.753906 -15.460938 13.308594 -13.761719 13.386719 -11.96875 C 13.867188 -9.53125 13.769531 -7.039062 14.34375 -4.664062 C 14.574219 -4.296875 14.804688 -3.929688 15.214844 -3.726562 C 15.667969 -3.574219 15.808594 -3.101562 15.992188 -2.730469 C 16.5625 -2.882812 16.902344 -2.378906 17.433594 -2.433594 C 17.996094 -2.148438 18.652344 -2.40625 19.222656 -2.558594 C 19.65625 -2.601562 19.480469 -3.410156 20.140625 -3.136719 C 20.605469 -3.863281 20.371094 -4.765625 20.199219 -5.527344 C 19.925781 -7.300781 19.898438 -9.097656 19.582031 -10.820312 C 19.554688 -11.109375 19.675781 -11.367188 19.648438 -11.65625 C 19.242188 -12.832031 19.355469 -14.15625 18.992188 -15.386719 C 19.082031 -16.46875 18.773438 -17.605469 18.8125 -18.730469 C 18.816406 -20.675781 18.578125 -22.601562 18.585938 -24.546875 C 18.699219 -24.851562 18.8125 -25.203125 18.683594 -25.53125 C 18.636719 -26.015625 18.582031 -26.542969 18.585938 -27.03125 C 18.789062 -27.441406 18.648438 -27.867188 18.5625 -28.246094 C 18.597656 -28.882812 18.828125 -29.539062 18.621094 -30.152344 C 18.453125 -30.863281 18.628906 -31.5625 18.5625 -32.238281 C 18.261719 -33.328125 18.34375 -34.503906 17.664062 -35.460938 C 17.058594 -35.695312 16.785156 -36.496094 16.105469 -36.476562 C 15.761719 -36.492188 14.996094 -36.367188 14.988281 -36.953125 C 14.167969 -36.871094 13.347656 -36.792969 12.527344 -36.710938 C 12.582031 -36.667969 12.683594 -36.628906 12.734375 -36.585938 C 12.496094 -36.027344 12.164062 -35.457031 12.273438 -34.835938 C 12.546875 -32.527344 12.238281 -30.207031 12.410156 -27.9375 C 12.371094 -27.347656 12.476562 -26.777344 12.238281 -26.21875 C 12.449219 -25.554688 12.230469 -24.804688 12.300781 -24.082031 C 12.332031 -23.257812 12.460938 -22.441406 12.445312 -21.613281 C 12.636719 -21.144531 12.203125 -20.613281 11.757812 -20.667969 C 9.890625 -20.339844 8.140625 -19.828125 6.3125 -19.601562 C 6.210938 -20.128906 6.40625 -20.632812 6.359375 -21.117188 C 6.125 -21.53125 6.414062 -22.046875 6.320312 -22.523438 C 6.605469 -23.574219 6.351562 -24.667969 6.539062 -25.757812 C 6.511719 -26.046875 6.382812 -26.375 6.496094 -26.679688 C 6.519531 -27.460938 6.351562 -28.171875 6.523438 -28.921875 C 6.421875 -29.445312 6.269531 -30.015625 6.464844 -30.519531 C 6.300781 -31.671875 6.480469 -32.859375 6.222656 -34.003906 C 5.769531 -34.640625 5.214844 -35.316406 4.457031 -35.632812 C 4.257812 -35.660156 4.296875 -35.761719 4.332031 -35.910156 C 3.988281 -35.925781 3.601562 -35.886719 3.21875 -35.851562 C 2.539062 -35.832031 1.847656 -35.910156 1.226562 -35.800781 Z M 1.226562 -35.800781 "/></g></g><g style="fill:rgb(12.159729%,39.608765%,39.99939%);fill-opacity:1;"><g transform="translate(234.980166, 290.825028)"><path style="stroke:none;" d="M 24.992188 -26.070312 C 24.808594 -26.527344 24.71875 -27.003906 24.675781 -27.488281 C 24.445312 -27.9375 24.15625 -28.425781 23.875 -28.867188 C 23.414062 -29.226562 22.992188 -29.636719 22.53125 -29.996094 C 21.695312 -29.988281 20.910156 -30.234375 20.074219 -30.226562 C 20.066406 -30.273438 20.066406 -30.273438 20.015625 -30.265625 C 19.152344 -30.152344 18.320312 -29.847656 17.488281 -29.546875 C 17.441406 -29.535156 17.355469 -29.472656 17.316406 -29.414062 C 17.101562 -28.980469 16.636719 -28.84375 16.363281 -28.449219 C 16.246094 -28.03125 16.003906 -27.738281 15.714844 -27.4375 C 15.203125 -26.75 14.90625 -25.957031 14.453125 -25.230469 C 14.207031 -25.234375 14.066406 -25.453125 13.972656 -25.683594 C 13.742188 -26.132812 13.414062 -26.5625 13.007812 -26.882812 C 11.980469 -27.378906 10.855469 -27.859375 9.65625 -27.683594 C 8.636719 -27.59375 7.535156 -27.433594 6.671875 -26.78125 C 5.03125 -25.539062 4.753906 -23.316406 3.519531 -21.753906 C 3.417969 -22.03125 3.46875 -22.289062 3.519531 -22.542969 C 3.15625 -23.167969 2.917969 -23.910156 2.375 -24.449219 C 1.503906 -24.632812 0.78125 -25.332031 -0.191406 -25.25 C -0.382812 -25.757812 -1.117188 -25.71875 -1.433594 -26.101562 C -1.871094 -26.070312 -2.339844 -25.933594 -2.757812 -25.804688 C -2.835938 -25.691406 -2.867188 -25.589844 -2.945312 -25.476562 C -2.917969 -23.753906 -2.539062 -22 -2.457031 -20.242188 C -2.160156 -19.707031 -2.292969 -19.089844 -2.175781 -18.472656 C -1.742188 -15.890625 -1.308594 -13.308594 -0.921875 -10.722656 C -0.785156 -9.464844 -0.59375 -8.171875 -0.121094 -6.976562 C 0.183594 -6.394531 -0.0820312 -5.703125 0.359375 -5.195312 C 0.359375 -4.40625 0.816406 -3.800781 1.324219 -3.203125 C 1.324219 -2.664062 1.875 -2.617188 2.222656 -2.339844 C 2.570312 -2.058594 3.085938 -1.957031 3.308594 -1.554688 C 4.335938 -1.601562 5.324219 -1.835938 6.308594 -2.117188 C 6.386719 -2.476562 6.515625 -2.847656 6.757812 -3.136719 C 6.800781 -4.476562 6.21875 -5.746094 6.027344 -7.042969 C 5.742188 -7.777344 5.835938 -8.585938 5.511719 -9.261719 C 5.5625 -9.519531 5.796875 -9.859375 5.542969 -10.15625 C 5.339844 -10.710938 5.472656 -11.324219 5.125 -11.851562 C 4.933594 -13.148438 4.652344 -14.375 4.515625 -15.632812 C 4.488281 -16.316406 4.941406 -16.796875 5.28125 -17.351562 C 5.777344 -18.382812 6.21875 -19.449219 6.761719 -20.488281 C 7.445312 -21.058594 7.261719 -22.308594 8.066406 -22.753906 C 8.226562 -22.144531 8.390625 -21.535156 8.308594 -20.925781 C 8.722656 -20.019531 8.570312 -19.003906 8.746094 -18.050781 C 9.003906 -16.421875 8.726562 -14.746094 9.027344 -13.125 C 9.222656 -11.832031 9.167969 -10.539062 9.457031 -9.261719 C 9.5 -8.234375 9.640625 -7.226562 9.777344 -6.21875 C 9.796875 -5.332031 10.761719 -4.921875 10.921875 -4.066406 C 11.109375 -3.851562 11.554688 -3.839844 11.570312 -3.496094 C 11.789062 -3.390625 12.101562 -3.300781 12.152344 -3.015625 C 12.773438 -2.589844 13.511719 -2.875 14.191406 -2.65625 C 14.878906 -2.933594 15.746094 -3.046875 16.039062 -3.839844 C 16.578125 -4.382812 16 -5.113281 16.273438 -5.757812 C 16.042969 -6.996094 16 -8.269531 15.816406 -9.515625 C 15.660156 -10.078125 15.886719 -10.710938 15.6875 -11.265625 C 15.292969 -11.785156 16 -12.210938 15.609375 -12.730469 C 15.425781 -13.1875 15.589844 -13.613281 15.464844 -14.035156 C 15.191406 -14.425781 15.644531 -14.90625 15.414062 -15.355469 C 15.582031 -16.027344 15.296875 -16.761719 15.410156 -17.472656 C 15.214844 -17.734375 15.207031 -18.027344 15.296875 -18.339844 C 15.234375 -18.671875 15.164062 -19.054688 15.300781 -19.375 C 15.988281 -20.195312 16.484375 -21.222656 17.160156 -22.089844 C 17.246094 -22.945312 17.789062 -23.734375 18.1875 -24.5 C 18.246094 -24.707031 18.542969 -24.714844 18.664062 -24.589844 C 18.730469 -23.960938 18.667969 -23.257812 18.734375 -22.632812 C 18.769531 -22.441406 18.957031 -22.230469 18.679688 -22.128906 C 18.847656 -20.976562 18.671875 -19.808594 18.78125 -18.695312 C 18.898438 -16.746094 18.675781 -14.78125 19.125 -12.894531 C 19.382812 -11.265625 19.445312 -9.605469 19.933594 -8.066406 C 20.355469 -7.652344 20.507812 -7.089844 20.84375 -6.613281 C 21.082031 -6.410156 21.417969 -6.175781 21.578125 -5.863281 C 21.699219 -5.738281 21.820312 -5.613281 21.894531 -5.476562 C 22.128906 -5.273438 22.421875 -5.035156 22.695312 -4.886719 C 23.398438 -4.824219 24.027344 -5.136719 24.691406 -5.015625 C 25.054688 -4.933594 25.304688 -5.179688 25.617188 -5.335938 C 25.679688 -5.542969 25.792969 -5.714844 25.976562 -5.796875 C 26.53125 -7.035156 25.933594 -8.402344 25.9375 -9.683594 C 25.652344 -10.421875 25.796875 -11.234375 25.644531 -12.046875 C 25.378906 -13.472656 25.539062 -14.984375 25.320312 -16.421875 C 25.347656 -17.3125 25.226562 -18.226562 25.363281 -19.089844 C 25.132812 -19.785156 25.285156 -20.554688 25.246094 -21.285156 C 25.015625 -21.984375 25.128906 -22.695312 25.09375 -23.425781 C 25.082031 -24.015625 24.925781 -24.578125 24.960938 -25.175781 C 25.058594 -25.441406 25.394531 -25.75 24.992188 -26.070312 Z M 24.992188 -26.070312 "/></g></g><g style="fill:rgb(12.159729%,39.608765%,39.99939%);fill-opacity:1;"><g transform="translate(265.834439, 284.782444)"><path style="stroke:none;" d="M 12.789062 -24.058594 C 12.398438 -24.753906 12.019531 -25.40625 11.625 -26.101562 C 10.984375 -26.425781 10.363281 -26.859375 9.652344 -27.066406 C 9.347656 -27.082031 8.972656 -26.980469 8.640625 -27.089844 C 7.964844 -27.355469 7.277344 -27.117188 6.644531 -27.046875 C 5.765625 -26.953125 4.964844 -26.582031 4.332031 -25.957031 C 4.191406 -25.367188 3.574219 -25.046875 3.4375 -24.457031 C 3.210938 -23.992188 2.929688 -23.5625 2.65625 -23.085938 C 2.578125 -23.015625 2.371094 -23.210938 2.441406 -23.328125 C 2.753906 -24.015625 1.953125 -24.550781 1.511719 -24.882812 C 1.121094 -25.027344 0.863281 -25.410156 0.464844 -25.398438 C 0.378906 -25.527344 0.144531 -25.460938 0.0507812 -25.4375 C 0.0078125 -25.425781 0.0078125 -25.425781 -0.0390625 -25.410156 C -0.332031 -25.378906 -0.675781 -25.335938 -0.96875 -25.308594 C -1.152344 -25.257812 -1.378906 -25.34375 -1.558594 -25.445312 C -1.605469 -25.433594 -1.605469 -25.433594 -1.652344 -25.421875 C -2.183594 -24.972656 -2.542969 -25.929688 -3.0625 -25.4375 L -3.5625 -25.25 C -3.6875 -24.964844 -3.953125 -24.839844 -4.148438 -24.636719 C -4.035156 -23.863281 -3.820312 -23.066406 -3.707031 -22.292969 C -3.636719 -20.757812 -3.226562 -19.261719 -3.144531 -17.675781 C -3.09375 -16.03125 -2.644531 -14.398438 -2.300781 -12.78125 C -1.839844 -12.003906 -1.992188 -11.109375 -1.667969 -10.292969 C -1.292969 -9.292969 -1.351562 -8.21875 -0.882812 -7.242188 C -0.359375 -5.878906 -0.382812 -4.316406 0.378906 -3.019531 C 0.914062 -2.710938 1.5 -2.21875 1.492188 -1.515625 C 2.058594 -2.023438 2.296875 -1.332031 2.753906 -1.308594 C 3.074219 -1.246094 3.222656 -0.886719 3.5625 -0.929688 C 4.3125 -1.132812 5.023438 -1.277344 5.675781 -1.65625 C 5.726562 -2.023438 6.011719 -2.253906 6.316406 -2.4375 C 6.25 -2.671875 6.386719 -2.910156 6.621094 -2.972656 C 6.398438 -3.414062 6.105469 -3.9375 6.101562 -4.488281 C 5.953125 -4.847656 5.757812 -5.199219 5.78125 -5.65625 C 5.296875 -6.878906 5.183594 -8.207031 4.699219 -9.429688 C 4.363281 -11.195312 3.734375 -12.933594 3.542969 -14.738281 C 3.078125 -16.066406 3.515625 -17.394531 3.757812 -18.714844 C 4.296875 -19.667969 4.570312 -20.699219 5.003906 -21.671875 C 5.324219 -22.160156 5.144531 -22.816406 5.472656 -23.257812 C 5.65625 -23.507812 5.996094 -23.550781 6.058594 -23.871094 C 6.128906 -23.988281 6.121094 -24.1875 6.324219 -24.191406 C 6.667969 -24.035156 6.46875 -23.480469 6.636719 -23.226562 C 7.007812 -21.515625 7.292969 -19.738281 7.675781 -17.984375 C 7.996094 -16.261719 8.179688 -14.503906 8.511719 -12.734375 C 8.667969 -10.519531 9.503906 -8.386719 10.46875 -6.339844 C 10.640625 -5.53125 11.542969 -5.175781 11.804688 -4.394531 C 12.570312 -4.355469 13.082031 -3.589844 13.8125 -3.488281 C 14.523438 -3.835938 15.320312 -3.851562 16.003906 -4.292969 C 16.179688 -4.390625 16.445312 -4.515625 16.476562 -4.773438 C 16.539062 -5.089844 16.78125 -5.308594 16.796875 -5.613281 C 16.480469 -6.03125 16.574219 -6.609375 16.210938 -7.011719 C 15.757812 -7.941406 15.660156 -9.019531 15.34375 -9.988281 C 15.03125 -10.957031 15.101562 -11.980469 14.796875 -12.902344 C 14.722656 -13.535156 14.558594 -14.144531 14.625 -14.816406 C 14.175781 -17.910156 13.4375 -20.972656 12.789062 -24.058594 Z M 12.789062 -24.058594 "/></g></g><g style="fill:rgb(12.159729%,39.608765%,39.99939%);fill-opacity:1;"><g transform="translate(285.511093, 279.344699)"><path style="stroke:none;" d="M 10.394531 -23.097656 C 9.765625 -24.472656 8.5625 -25.59375 7.207031 -26.253906 C 6.816406 -26.789062 6.097656 -26.644531 5.589844 -26.929688 C 5.25 -27.171875 4.867188 -27.089844 4.46875 -27.054688 C 3.855469 -27.203125 3.226562 -27.394531 2.613281 -27.238281 C 2.179688 -27.753906 1.589844 -27.089844 1.085938 -27.070312 C 0.191406 -27.429688 0.84375 -26.578125 0.429688 -26.585938 C 0.289062 -26.847656 0.03125 -26.707031 -0.214844 -26.671875 C -0.335938 -26.582031 -0.503906 -26.472656 -0.5 -26.316406 C -1.246094 -25.804688 -2.101562 -25.460938 -2.738281 -24.78125 C -2.949219 -24.5 -3.238281 -24.300781 -3.527344 -24.097656 C -3.769531 -23.757812 -3.890625 -23.359375 -3.902344 -22.945312 C -4.003906 -22.5 -4.460938 -22.035156 -4.101562 -21.59375 C -3.515625 -21.234375 -2.902344 -20.933594 -2.332031 -20.617188 C -1.484375 -20.394531 -0.578125 -20.144531 0.230469 -20.472656 C 0.792969 -20.769531 1.375 -21.019531 1.644531 -21.574219 C 1.777344 -21.929688 1.945312 -22.191406 2.25 -22.347656 C 2.800781 -22.382812 2.761719 -23.085938 3.222656 -23.246094 C 3.800781 -23.648438 4.371094 -23.179688 4.710938 -22.785156 C 5.007812 -22.066406 5.382812 -21.425781 5.683594 -20.710938 C 5.59375 -20.371094 6.199219 -19.65625 5.769531 -19.40625 C 4.464844 -19.625 3.246094 -19 2.054688 -18.589844 C 1.21875 -18.199219 0.210938 -17.699219 -0.132812 -16.761719 C -0.203125 -16.222656 -0.644531 -15.867188 -0.960938 -15.449219 C -1.339844 -14.910156 -1.347656 -14.191406 -1.742188 -13.695312 C -1.863281 -13.449219 -1.8125 -13.160156 -1.78125 -12.914062 C -2.050781 -12.359375 -1.890625 -11.75 -2.179688 -11.242188 C -2.078125 -10.351562 -2.039062 -9.496094 -1.9375 -8.605469 C -1.394531 -8.078125 -1.433594 -7.292969 -0.984375 -6.730469 C -0.0664062 -5.40625 0.941406 -4.117188 2.449219 -3.457031 C 2.664062 -3.273438 3.136719 -3.386719 3.203125 -3.050781 C 3.265625 -3.019531 3.371094 -3.003906 3.480469 -2.992188 C 3.480469 -2.992188 3.542969 -2.960938 3.542969 -2.960938 C 3.601562 -2.929688 3.648438 -2.945312 3.710938 -2.917969 C 4.234375 -2.738281 4.8125 -2.835938 5.351562 -2.609375 C 7.175781 -2.523438 8.964844 -2.984375 10.660156 -3.71875 C 11.007812 -4.046875 11.324219 -4.460938 11.597656 -4.863281 C 12.332031 -4.960938 13.035156 -5.304688 13.644531 -5.617188 C 13.976562 -5.835938 14.203125 -6.222656 14.292969 -6.558594 C 14.367188 -6.636719 14.507812 -6.683594 14.582031 -6.761719 C 14.183594 -6.726562 14.039062 -7.292969 14.3125 -7.539062 C 14.726562 -7.835938 13.96875 -8.242188 14.210938 -8.582031 C 14.421875 -9.164062 13.816406 -9.726562 13.980469 -10.292969 C 14.035156 -11.03125 13.523438 -11.625 13.546875 -12.296875 C 13.753906 -13.035156 13.363281 -13.722656 13.28125 -14.410156 C 13.394531 -15.269531 12.929688 -16.03125 12.84375 -16.871094 C 12.394531 -19.074219 11.742188 -21.257812 10.394531 -23.097656 Z M 7.132812 -14.703125 C 7.300781 -13.171875 7.824219 -11.660156 7.914062 -10.050781 C 8.121094 -9.304688 8.191406 -8.507812 8.304688 -7.726562 C 8.21875 -7.390625 7.847656 -7.414062 7.605469 -7.230469 C 7.210938 -7.042969 6.875 -6.671875 6.527344 -6.34375 C 5.640625 -6.246094 4.289062 -6.292969 3.988281 -7.316406 C 3.675781 -8.078125 3.054688 -8.839844 3.261719 -9.730469 C 3.324219 -10.878906 3.714844 -11.988281 4.054688 -13.078125 C 4.296875 -13.570312 4.953125 -13.898438 4.855469 -14.480469 C 5.261719 -15.082031 5.714844 -15.699219 6.355469 -16.074219 C 6.460938 -16.210938 6.765625 -16.367188 6.816406 -16.078125 C 7.203125 -15.699219 6.824219 -15.160156 7.132812 -14.703125 Z M 7.132812 -14.703125 "/></g></g><path style=" stroke:none;fill-rule:nonzero;fill:rgb(12.159729%,39.608765%,39.99939%);fill-opacity:1;" d="M 181.800781 121.804688 C 175.425781 118.429688 169.015625 115.0625 162.796875 111.378906 C 162.71875 111.332031 162.628906 111.304688 162.539062 111.296875 C 162.445312 111.289062 162.355469 111.304688 162.269531 111.339844 C 162.183594 111.378906 162.109375 111.429688 162.046875 111.503906 C 161.988281 111.574219 161.945312 111.652344 161.925781 111.746094 L 161.808594 111.679688 C 161.808594 111.679688 159.996094 113.25 160.40625 113.433594 C 162.492188 114.375 167.824219 117.507812 167.773438 121.550781 C 167.335938 121.695312 167.105469 122.367188 167.625 122.65625 C 171.972656 125.078125 176.289062 127.511719 180.363281 130.363281 C 180.558594 130.519531 180.757812 130.527344 180.960938 130.382812 C 181.078125 130.347656 181.164062 130.277344 181.226562 130.171875 C 181.289062 130.070312 181.304688 129.957031 181.28125 129.839844 C 180.964844 127.320312 181.472656 124.929688 182.082031 122.492188 C 182.09375 122.441406 182.101562 122.390625 182.101562 122.335938 C 182.128906 122.089844 182.027344 121.910156 181.800781 121.804688 Z M 181.800781 121.804688 "/><path style=" stroke:none;fill-rule:nonzero;fill:rgb(0%,0%,0%);fill-opacity:1;" d="M 211.117188 113.609375 C 207.125 112.875 203.171875 111.960938 199.113281 111.628906 C 193.753906 111.21875 188.492188 111.753906 183.328125 113.230469 C 182.574219 113.441406 182.898438 114.617188 183.652344 114.40625 C 188.714844 112.957031 193.867188 112.4375 199.113281 112.847656 C 203.0625 113.164062 206.90625 114.066406 210.796875 114.78125 C 211.5625 114.921875 211.890625 113.757812 211.117188 113.609375 Z M 211.117188 113.609375 "/><path style=" stroke:none;fill-rule:nonzero;fill:rgb(0%,0%,0%);fill-opacity:1;" d="M 211.574219 114.195312 C 211.527344 113.042969 211.203125 111.972656 210.605469 110.984375 C 209.941406 109.890625 209 109.488281 207.75 109.289062 C 205.003906 108.859375 202.015625 108.953125 199.238281 108.902344 C 193.5 108.804688 187.546875 109.457031 183.066406 113.386719 C 182.476562 113.898438 183.339844 114.761719 183.929688 114.25 C 187.847656 110.8125 193.074219 110.105469 198.105469 110.109375 C 200.433594 110.109375 202.75 110.253906 205.074219 110.339844 C 206.296875 110.386719 208.121094 110.1875 209.125 111.03125 C 209.925781 111.707031 210.324219 113.195312 210.351562 114.195312 C 210.375 114.976562 211.59375 114.980469 211.570312 114.195312 Z M 211.574219 114.195312 "/><path style=" stroke:none;fill-rule:nonzero;fill:rgb(0%,0%,0%);fill-opacity:1;" d="M 224.160156 113.773438 C 224.160156 112.796875 224.394531 111.808594 224.394531 110.839844 C 224.394531 110.777344 224.539062 110.179688 224.324219 110.609375 C 224.261719 110.734375 224.097656 110.753906 224.261719 110.695312 L 224.664062 110.554688 C 225.988281 110.101562 227.335938 109.714844 228.683594 109.355469 C 230.476562 108.851562 232.292969 108.480469 234.136719 108.238281 C 235.140625 108.121094 237.121094 107.773438 237.867188 108.695312 C 238.359375 109.300781 239.214844 108.4375 238.726562 107.832031 C 237.820312 106.710938 235.878906 106.859375 234.613281 106.972656 C 232.445312 107.203125 230.316406 107.617188 228.21875 108.214844 C 226.839844 108.585938 225.273438 108.886719 223.976562 109.492188 C 222.679688 110.101562 222.929688 112.558594 222.921875 113.769531 C 222.921875 114.554688 224.132812 114.554688 224.140625 113.769531 Z M 224.160156 113.773438 "/><path style=" stroke:none;fill-rule:nonzero;fill:rgb(0%,0%,0%);fill-opacity:1;" d="M 223.847656 114.300781 C 225.757812 113.234375 227.996094 112.554688 230.074219 111.902344 C 231.410156 111.46875 232.769531 111.125 234.152344 110.863281 C 235.09375 110.699219 236.453125 110.417969 237.339844 110.90625 C 238.027344 111.285156 238.640625 110.234375 237.953125 109.855469 C 235.820312 108.683594 232.421875 109.925781 230.304688 110.5625 C 227.941406 111.269531 225.398438 112.042969 223.230469 113.25 C 222.546875 113.628906 223.160156 114.679688 223.847656 114.300781 Z M 223.847656 114.300781 "/><path style=" stroke:none;fill-rule:nonzero;fill:rgb(0%,0%,0%);fill-opacity:1;" d="M 215.246094 82.277344 C 211.359375 79.695312 206.476562 79.355469 201.988281 80.21875 C 197.605469 81.054688 194.097656 83.101562 191.460938 86.71875 C 188.742188 90.445312 188.171875 95.21875 184.789062 98.53125 C 180.613281 102.617188 174.816406 104.171875 169.523438 106.285156 C 165.652344 107.832031 161.117188 110.003906 159.132812 113.886719 C 158.777344 114.582031 159.828125 115.199219 160.1875 114.5 C 161.941406 111.0625 165.964844 109.042969 169.394531 107.640625 C 174.164062 105.691406 179.277344 104.300781 183.484375 101.207031 C 185.316406 99.90625 186.832031 98.304688 188.035156 96.402344 C 189.296875 94.339844 189.914062 91.992188 190.972656 89.835938 C 192.660156 86.386719 195.574219 83.402344 199.261719 82.167969 C 204.230469 80.519531 210.117188 80.320312 214.625 83.3125 C 215.277344 83.75 215.890625 82.695312 215.238281 82.265625 Z M 215.246094 82.277344 "/><path style=" stroke:none;fill-rule:nonzero;fill:rgb(0%,0%,0%);fill-opacity:1;" d="M 168.519531 121.96875 C 167.734375 117.839844 161.105469 109.902344 156.980469 115.175781 C 155.289062 117.328125 155.859375 120.519531 156.511719 122.945312 C 157.28125 125.792969 158.53125 128.453125 159.644531 131.171875 C 161.15625 134.84375 162.542969 138.664062 166.167969 140.742188 C 166.847656 141.132812 167.460938 140.082031 166.78125 139.691406 C 163.96875 138.070312 162.640625 135.269531 161.445312 132.371094 C 160.515625 130.117188 159.503906 127.882812 158.652344 125.597656 C 157.777344 123.246094 156.847656 120.570312 157.148438 118.027344 C 157.464844 115.328125 159.898438 113.984375 162.3125 115.34375 C 164.722656 116.703125 166.832031 119.578125 167.347656 122.289062 C 167.492188 123.054688 168.667969 122.734375 168.519531 121.96875 Z M 168.519531 121.96875 "/><path style=" stroke:none;fill-rule:nonzero;fill:rgb(0%,0%,0%);fill-opacity:1;" d="M 170.238281 140.457031 C 171.648438 140.664062 173.019531 141.097656 173.988281 142.203125 C 175.023438 143.382812 175.386719 144.996094 175.597656 146.515625 C 175.855469 148.304688 175.757812 149.847656 174.726562 151.398438 C 173.695312 152.949219 172.046875 153.796875 170.210938 153.953125 C 168.378906 154.113281 166.351562 153.902344 164.925781 152.589844 C 163.496094 151.277344 162.972656 149.292969 163.023438 147.390625 C 163.140625 143.355469 165.933594 139.773438 170.238281 140.449219 C 171.007812 140.570312 171.335938 139.398438 170.566406 139.277344 C 167.328125 138.765625 164.203125 140.179688 162.824219 143.214844 C 161.34375 146.472656 161.289062 150.839844 164.066406 153.453125 C 166.542969 155.777344 171.113281 155.804688 173.875 153.960938 C 175.148438 153.070312 176.054688 151.894531 176.589844 150.4375 C 177.160156 148.976562 176.972656 147.371094 176.726562 145.851562 C 176.148438 142.300781 174.238281 139.824219 170.570312 139.28125 C 169.804688 139.167969 169.476562 140.339844 170.246094 140.453125 Z M 170.238281 140.457031 "/><path style=" stroke:none;fill-rule:nonzero;fill:rgb(0%,0%,0%);fill-opacity:1;" d="M 169.25 141.710938 C 167.898438 141.746094 166.53125 142.144531 165.648438 143.230469 C 164.765625 144.316406 164.699219 145.785156 164.695312 147.160156 C 164.691406 148.535156 164.695312 150.082031 165.597656 151.222656 C 166.386719 152.222656 167.644531 152.726562 168.894531 152.792969 C 170.238281 152.886719 171.421875 152.496094 172.445312 151.628906 C 173.566406 150.625 173.769531 149.199219 173.765625 147.765625 C 173.765625 146.375 173.726562 144.613281 172.945312 143.40625 C 172.128906 142.148438 170.671875 141.753906 169.25 141.710938 C 168.464844 141.691406 168.464844 142.90625 169.25 142.925781 C 170.421875 142.960938 171.59375 143.269531 172.109375 144.433594 C 172.523438 145.367188 172.527344 146.582031 172.542969 147.585938 C 172.566406 148.730469 172.515625 149.964844 171.585938 150.765625 C 170.796875 151.394531 169.898438 151.667969 168.894531 151.578125 C 166.402344 151.40625 165.929688 149.453125 165.914062 147.328125 C 165.914062 146.308594 165.851562 145.097656 166.425781 144.207031 C 167.046875 143.261719 168.167969 142.953125 169.238281 142.929688 C 170.023438 142.914062 170.023438 141.695312 169.238281 141.714844 Z M 169.25 141.710938 "/><path style=" stroke:none;fill-rule:nonzero;fill:rgb(0%,0%,0%);fill-opacity:1;" d="M 215.371094 83.167969 C 217.929688 80.683594 221.445312 78.390625 225.132812 78.476562 C 229.300781 78.578125 233.03125 81.125 235.234375 84.5625 C 237.566406 88.199219 238.222656 92.441406 238.28125 96.691406 C 238.324219 101.402344 238.019531 106.089844 237.367188 110.757812 C 236.933594 113.933594 236.460938 117.804688 238.117188 120.71875 C 238.503906 121.398438 239.558594 120.789062 239.167969 120.105469 C 237.351562 116.898438 238.402344 112.464844 238.8125 109.019531 C 239.429688 103.996094 239.792969 98.800781 239.367188 93.738281 C 238.71875 86.039062 234.066406 77.789062 225.527344 77.277344 C 221.359375 77.019531 217.394531 79.492188 214.507812 82.304688 C 213.949219 82.855469 214.808594 83.710938 215.371094 83.164062 Z M 215.371094 83.167969 "/><path style=" stroke:none;fill-rule:nonzero;fill:rgb(0%,0%,0%);fill-opacity:1;" d="M 238.117188 85.015625 C 242.023438 90.957031 245.777344 97.195312 247.515625 104.15625 C 248.40625 107.734375 248.472656 111.421875 249.308594 114.996094 C 249.953125 117.734375 250.957031 120.34375 251.832031 123.007812 C 252.730469 125.769531 253.4375 128.695312 253.449219 131.613281 C 253.449219 134.472656 253.039062 137.324219 252.703125 140.15625 C 252.375 142.886719 252.191406 145.621094 252.066406 148.367188 C 251.929688 151.230469 251.855469 154.351562 252.972656 157.054688 C 253.515625 158.355469 254.171875 159.574219 254.601562 160.933594 C 255.121094 162.570312 255.484375 164.238281 255.695312 165.941406 C 256.144531 169.496094 255.980469 173.152344 254.847656 176.566406 C 254.589844 177.3125 255.773438 177.632812 256.019531 176.890625 C 257.898438 171.222656 257.414062 164.53125 255.210938 159.003906 C 254.765625 157.898438 254.136719 156.875 253.796875 155.730469 C 253.300781 154.058594 253.21875 152.289062 253.222656 150.554688 C 253.222656 147.808594 253.398438 145.019531 253.675781 142.285156 C 253.980469 139.304688 254.445312 136.335938 254.617188 133.34375 C 254.742188 130.402344 254.398438 127.515625 253.597656 124.6875 C 252.871094 121.984375 251.777344 119.398438 251.007812 116.710938 C 249.996094 113.191406 249.796875 109.597656 249.144531 106.015625 C 247.699219 98.097656 243.515625 91.03125 239.148438 84.398438 C 238.722656 83.75 237.664062 84.355469 238.097656 85.011719 Z M 238.117188 85.015625 "/><path style=" stroke:none;fill-rule:nonzero;fill:rgb(0%,0%,0%);fill-opacity:1;" d="M 254.851562 176.566406 C 253.738281 179.886719 251.726562 182.75 248.535156 184.335938 C 246.027344 185.542969 243.386719 186.035156 240.609375 185.816406 C 237.570312 185.527344 234.628906 183.53125 232.003906 182.125 C 229.378906 180.71875 226.820312 179.34375 223.820312 179.019531 C 219.261719 178.53125 214.851562 178.597656 211.226562 175.363281 C 210.644531 174.851562 209.78125 175.695312 210.367188 176.222656 C 213.464844 178.988281 217.101562 179.691406 221.121094 180.003906 C 222.976562 180.148438 224.847656 180.210938 226.605469 180.859375 C 228.261719 181.472656 229.832031 182.339844 231.386719 183.175781 C 234.179688 184.675781 237.25 186.695312 240.484375 187.007812 C 243.371094 187.238281 246.132812 186.753906 248.773438 185.558594 C 252.441406 183.882812 254.773438 180.625 256.03125 176.871094 C 256.285156 176.128906 255.105469 175.808594 254.855469 176.546875 Z M 254.851562 176.566406 "/><path style=" stroke:none;fill-rule:nonzero;fill:rgb(0%,0%,0%);fill-opacity:1;" d="M 149.859375 101.742188 C 145.121094 106.597656 144.039062 113.929688 143.554688 120.394531 C 143.242188 124.464844 143.425781 128.511719 144.109375 132.535156 C 144.875 136.921875 145.851562 141.109375 143.914062 145.34375 C 142.394531 148.664062 140.203125 151.628906 138.800781 155.027344 C 137.695312 157.714844 136.703125 161.074219 137.183594 164.003906 C 137.597656 166.558594 138.71875 169.339844 140.703125 171.070312 C 143.144531 173.210938 146.25 174.808594 149.5625 174.738281 C 152.464844 174.671875 155.421875 174.035156 158.207031 173.257812 C 160.765625 172.546875 163.691406 171.664062 165.640625 169.777344 C 166.207031 169.234375 165.34375 168.371094 164.78125 168.917969 C 163.101562 170.539062 160.5625 171.304688 158.386719 171.945312 C 155.894531 172.691406 153.351562 173.191406 150.757812 173.445312 C 147.578125 173.722656 144.714844 172.699219 142.214844 170.738281 C 140.039062 169.027344 138.777344 166.394531 138.378906 163.675781 C 137.921875 160.625 139.183594 157.070312 140.425781 154.347656 C 141.824219 151.324219 143.820312 148.613281 145.148438 145.5625 C 146.570312 142.292969 146.496094 139.011719 145.917969 135.558594 C 145.242188 131.617188 144.597656 127.777344 144.636719 123.757812 C 144.707031 119.460938 145.246094 115.226562 146.253906 111.046875 C 146.976562 107.996094 148.527344 104.859375 150.730469 102.601562 C 151.277344 102.042969 150.417969 101.179688 149.867188 101.742188 Z M 149.859375 101.742188 "/><path style=" stroke:none;fill-rule:nonzero;fill:rgb(0%,0%,0%);fill-opacity:1;" d="M 163.035156 171.039062 C 164.824219 173.015625 166.75 174.917969 169.171875 176.109375 C 172.621094 177.808594 176.484375 177.535156 180.042969 176.351562 C 182.765625 175.449219 185.871094 174.464844 188.253906 172.820312 C 190.632812 171.175781 191.320312 168.695312 191.085938 165.921875 C 191.023438 165.15625 189.808594 165.140625 189.867188 165.921875 C 190.089844 168.699219 189.335938 170.863281 186.839844 172.261719 C 184.523438 173.5625 181.875 174.488281 179.355469 175.296875 C 175.972656 176.382812 172.316406 176.511719 169.140625 174.714844 C 167.097656 173.5625 165.453125 171.90625 163.898438 170.179688 C 163.375 169.597656 162.515625 170.460938 163.039062 171.039062 Z M 163.035156 171.039062 "/><path style=" stroke:none;fill-rule:nonzero;fill:rgb(0%,0%,0%);fill-opacity:1;" d="M 204.699219 61.542969 C 199.714844 60.566406 194.609375 59.648438 189.503906 59.878906 C 187.113281 59.984375 184.683594 60.339844 182.453125 61.246094 C 179.972656 62.25 177.851562 63.96875 175.867188 65.734375 C 171.460938 69.660156 167.765625 74.324219 164.105469 78.925781 C 161.273438 82.484375 159.167969 86.3125 156.988281 90.269531 C 154.867188 94.121094 152.824219 98.445312 149.867188 101.742188 C 149.355469 102.324219 150.203125 103.1875 150.726562 102.601562 C 153.140625 99.902344 154.882812 96.511719 156.640625 93.371094 C 158.546875 89.984375 160.222656 86.394531 162.410156 83.179688 C 164.101562 80.699219 166.058594 78.386719 167.957031 76.058594 C 169.824219 73.777344 171.734375 71.53125 173.785156 69.417969 C 175.839844 67.304688 178.019531 65.230469 180.496094 63.636719 C 182.640625 62.261719 185.046875 61.535156 187.574219 61.246094 C 193.179688 60.605469 198.875 61.640625 204.363281 62.71875 C 205.128906 62.871094 205.457031 61.695312 204.6875 61.546875 Z M 204.699219 61.542969 "/><path style=" stroke:none;fill-rule:nonzero;fill:rgb(0%,0%,0%);fill-opacity:1;" d="M 204.699219 62.714844 C 216.5 58.496094 227.230469 69.015625 233.554688 77.75 C 235.242188 80.066406 236.761719 82.488281 238.117188 85.015625 C 238.488281 85.707031 239.539062 85.09375 239.167969 84.402344 C 236.457031 79.308594 233.101562 74.675781 229.105469 70.507812 C 225.003906 66.246094 219.949219 62.300781 214.066406 60.96875 C 210.777344 60.214844 207.546875 60.40625 204.371094 61.539062 C 203.640625 61.796875 203.957031 62.980469 204.699219 62.714844 Z M 204.699219 62.714844 "/><path style=" stroke:none;fill-rule:nonzero;fill:rgb(0%,0%,0%);fill-opacity:1;" d="M 215.527344 82.089844 C 213.71875 74.679688 210.128906 67.359375 204.964844 61.703125 C 204.4375 61.121094 203.578125 61.984375 204.105469 62.558594 C 209.128906 68.066406 212.59375 75.203125 214.351562 82.410156 C 214.539062 83.179688 215.714844 82.851562 215.527344 82.089844 Z M 215.527344 82.089844 "/><path style=" stroke:none;fill-rule:nonzero;fill:rgb(0%,0%,0%);fill-opacity:1;" d="M 226.4375 153.386719 C 225.316406 152.527344 224.183594 151.683594 223.035156 150.859375 C 222.285156 150.328125 221.476562 149.582031 220.515625 149.496094 C 219.503906 149.410156 218.945312 150.089844 218.152344 150.5625 C 216.820312 151.363281 215.425781 150.710938 214.128906 150.179688 C 213.324219 149.847656 212.484375 149.410156 211.617188 149.753906 C 210.542969 150.179688 209.570312 151.136719 208.621094 151.773438 C 206.378906 153.257812 204.058594 154.597656 201.652344 155.800781 C 200.953125 156.152344 201.570312 157.203125 202.269531 156.847656 C 204.386719 155.789062 206.441406 154.621094 208.433594 153.339844 C 209.359375 152.742188 210.273438 152.121094 211.171875 151.480469 C 211.875 150.980469 212.304688 150.851562 213.1875 151.101562 C 213.671875 151.242188 214.136719 151.503906 214.609375 151.679688 C 216.496094 152.394531 217.722656 152.265625 219.351562 151.167969 C 220.144531 150.628906 220.527344 150.710938 221.394531 151.191406 C 221.820312 151.457031 222.230469 151.746094 222.625 152.054688 C 223.707031 152.824219 224.769531 153.628906 225.824219 154.4375 C 226.445312 154.914062 227.050781 153.859375 226.441406 153.386719 Z M 226.4375 153.386719 "/><path style=" stroke:none;fill-rule:nonzero;fill:rgb(0%,0%,0%);fill-opacity:1;" d="M 225.820312 153.386719 C 222.929688 154.832031 219.070312 154.242188 215.957031 154.195312 C 211.171875 154.125 206.4375 154.449219 201.808594 155.726562 C 201.054688 155.9375 201.375 157.109375 202.132812 156.902344 C 207.03125 155.542969 212.011719 155.320312 217.0625 155.421875 C 220.128906 155.484375 223.605469 155.839844 226.4375 154.425781 C 227.136719 154.078125 226.519531 153.027344 225.820312 153.378906 Z M 225.820312 153.386719 "/><path style=" stroke:none;fill-rule:nonzero;fill:rgb(0%,0%,0%);fill-opacity:1;" d="M 201.972656 156.933594 C 205.246094 156.953125 208.070312 158.8125 210.890625 160.253906 C 212.785156 161.21875 214.601562 161.507812 216.726562 161.429688 C 218.367188 161.363281 220.394531 161.214844 221.667969 160.054688 C 223.5 158.386719 224.390625 155.945312 226.4375 154.433594 C 227.0625 153.976562 226.453125 152.921875 225.820312 153.386719 C 223.941406 154.765625 222.882812 156.722656 221.441406 158.496094 C 220.136719 160.09375 218.023438 160.210938 216.070312 160.214844 C 215.0625 160.253906 214.066406 160.148438 213.082031 159.902344 C 211.921875 159.554688 210.828125 158.84375 209.757812 158.277344 C 207.316406 157 204.789062 155.722656 201.964844 155.722656 C 201.183594 155.722656 201.179688 156.933594 201.964844 156.9375 Z M 201.972656 156.933594 "/><path style=" stroke:none;fill-rule:nonzero;fill:rgb(0%,0%,0%);fill-opacity:1;" d="M 217.171875 142.1875 C 216.367188 141.21875 215.164062 141.089844 213.96875 141.226562 C 213.492188 141.28125 208.578125 142.292969 208.558594 142.121094 C 208.464844 141.355469 207.246094 141.355469 207.339844 142.121094 C 207.753906 145.542969 214.5 140.859375 216.3125 143.046875 C 216.824219 143.652344 217.667969 142.792969 217.171875 142.1875 Z M 217.171875 142.1875 "/><path style=" stroke:none;fill-rule:nonzero;fill:rgb(0%,0%,0%);fill-opacity:1;" d="M 205.542969 119.789062 C 201.855469 117.234375 196.5 117.378906 192.769531 119.789062 C 192.113281 120.210938 192.722656 121.265625 193.386719 120.839844 C 196.777344 118.644531 201.570312 118.523438 204.929688 120.839844 C 205.574219 121.285156 206.1875 120.230469 205.542969 119.789062 Z M 205.542969 119.789062 "/><path style=" stroke:none;fill-rule:nonzero;fill:rgb(0%,0%,0%);fill-opacity:1;" d="M 236.875 119.789062 C 235.144531 118.628906 232.871094 118.269531 230.832031 118.074219 C 228.65625 117.863281 226.367188 118.058594 224.359375 118.980469 C 223.589844 119.328125 222.289062 119.980469 221.921875 120.824219 C 221.246094 122.371094 224.171875 122.046875 224.882812 122.039062 C 225.667969 122.039062 225.667969 120.8125 224.882812 120.820312 C 224.628906 120.820312 223.03125 120.644531 222.886719 120.796875 C 222.832031 121.402344 222.871094 121.597656 223.011719 121.382812 C 222.984375 121.421875 223.011719 121.40625 223.0625 121.328125 C 223.136719 121.328125 223.246094 121.113281 223.316406 121.074219 C 224.355469 120.476562 225.175781 119.855469 226.386719 119.539062 C 229.351562 118.789062 233.664062 119.082031 236.261719 120.816406 C 236.914062 121.257812 237.527344 120.203125 236.878906 119.765625 Z M 236.875 119.789062 "/><path style=" stroke:none;fill-rule:nonzero;fill:rgb(0%,0%,0%);fill-opacity:1;" d="M 234.917969 140.21875 C 235.054688 146.207031 231.59375 151.285156 228.550781 156.164062 C 227.113281 158.464844 225.738281 160.820312 224.75 163.359375 C 223.738281 165.976562 223.78125 169.167969 221.011719 170.628906 C 218.371094 172.03125 215.078125 171.707031 212.253906 171.195312 C 209.183594 170.636719 206.113281 169.871094 203.089844 169.121094 C 197.59375 167.773438 191.960938 166.566406 187.191406 163.371094 C 182.332031 160.128906 178.386719 155.335938 176.742188 149.683594 C 176.527344 148.933594 175.351562 149.253906 175.570312 150.007812 C 177.066406 155.152344 180.363281 159.617188 184.535156 162.929688 C 189.289062 166.703125 194.808594 168.296875 200.601562 169.753906 C 203.957031 170.605469 207.328125 171.433594 210.722656 172.136719 C 213.660156 172.742188 216.828125 173.226562 219.773438 172.414062 C 222.230469 171.738281 224.058594 170.195312 224.75 167.710938 C 225.152344 166.28125 225.453125 164.867188 226.003906 163.480469 C 226.664062 161.890625 227.4375 160.359375 228.328125 158.882812 C 231.746094 153.054688 236.300781 147.332031 236.136719 140.230469 C 236.117188 139.449219 234.898438 139.449219 234.917969 140.230469 Z M 234.917969 140.21875 "/><path style=" stroke:none;fill-rule:nonzero;fill:rgb(0%,0%,0%);fill-opacity:1;" d="M 211.4375 171.800781 C 209.347656 176.679688 208.855469 182.359375 209.832031 187.550781 C 209.980469 188.316406 211.152344 187.992188 211.007812 187.226562 C 210.097656 182.386719 210.539062 176.96875 212.488281 172.40625 C 212.792969 171.695312 211.742188 171.074219 211.4375 171.792969 Z M 211.4375 171.800781 "/><path style=" stroke:none;fill-rule:nonzero;fill:rgb(0%,0%,0%);fill-opacity:1;" d="M 210.921875 177.230469 C 212.371094 178.8125 214.230469 180.859375 213.773438 183.199219 C 213.304688 185.59375 210.839844 186.828125 208.65625 187.222656 C 206.117188 187.652344 203.601562 187.546875 201.105469 186.90625 C 194.089844 185.136719 188.792969 179.496094 184.738281 173.820312 C 184.289062 173.1875 183.230469 173.792969 183.6875 174.433594 C 187.523438 179.800781 192.277344 184.96875 198.578125 187.378906 C 202.925781 189.046875 210.023438 189.855469 213.53125 186.121094 C 216.601562 182.84375 214.285156 179.101562 211.789062 176.367188 C 211.257812 175.792969 210.398438 176.652344 210.925781 177.230469 Z M 210.921875 177.230469 "/><path style=" stroke:none;fill-rule:nonzero;fill:rgb(0%,0%,0%);fill-opacity:1;" d="M 213.605469 181.140625 C 214.648438 185.308594 215.140625 189.617188 215.542969 193.886719 C 216.019531 199.050781 216.273438 204.238281 216.34375 209.421875 C 216.457031 217.597656 216.253906 225.800781 214.179688 233.746094 C 213.230469 237.386719 211.984375 241.070312 211.367188 244.789062 C 211.242188 245.554688 212.414062 245.886719 212.542969 245.113281 C 213.089844 241.777344 214.195312 238.472656 215.050781 235.207031 C 215.875 232.054688 216.605469 228.980469 216.957031 225.734375 C 218.046875 215.652344 217.722656 205.316406 216.871094 195.230469 C 216.460938 190.410156 215.949219 185.523438 214.773438 180.816406 C 214.582031 180.050781 213.410156 180.378906 213.597656 181.140625 Z M 213.605469 181.140625 "/><path style=" stroke:none;fill-rule:nonzero;fill:rgb(0%,0%,0%);fill-opacity:1;" d="M 179.421875 176.097656 C 185.898438 186.539062 190.210938 198.195312 194.03125 209.824219 C 195.492188 214.277344 196.84375 218.765625 198.328125 223.214844 C 199.46875 226.660156 200.804688 229.765625 202.792969 232.824219 C 204.394531 235.277344 206.121094 237.652344 207.832031 240.023438 C 209.0625 241.722656 210.4375 243.414062 211.4375 245.265625 C 211.808594 245.957031 212.859375 245.339844 212.488281 244.652344 C 211.636719 243.070312 210.484375 241.621094 209.433594 240.167969 C 207.898438 238.039062 206.34375 235.914062 204.867188 233.738281 C 202.675781 230.585938 200.957031 227.191406 199.722656 223.554688 C 196.394531 213.648438 193.496094 203.628906 189.574219 193.917969 C 187.015625 187.5625 184.089844 181.324219 180.476562 175.492188 C 180.0625 174.828125 179.007812 175.4375 179.421875 176.105469 Z M 179.421875 176.097656 "/><path style=" stroke:none;fill-rule:nonzero;fill:rgb(0%,0%,0%);fill-opacity:1;" d="M 159.964844 172.21875 C 160.0625 177.625 163.609375 182.425781 166.890625 186.441406 C 168.707031 188.664062 170.417969 190.894531 171.808594 193.414062 C 173.542969 196.550781 174.8125 199.894531 176.195312 203.195312 C 177.472656 206.261719 178.875 209.28125 180.914062 211.921875 C 181.890625 213.128906 182.949219 214.257812 184.085938 215.316406 C 187.429688 218.5625 190.886719 221.703125 194.289062 224.875 C 197.644531 228.019531 201.25 231.128906 204.105469 234.75 C 204.585938 235.363281 205.445312 234.492188 204.964844 233.890625 C 202.5625 230.824219 199.578125 228.191406 196.761719 225.53125 C 193.304688 222.269531 189.792969 219.070312 186.34375 215.796875 C 185.1875 214.699219 184.023438 213.601562 182.941406 212.433594 C 181.007812 210.351562 179.617188 207.835938 178.425781 205.28125 C 175.613281 199.179688 173.609375 192.832031 169.34375 187.503906 C 165.816406 183.101562 161.296875 178.199219 161.1875 172.222656 C 161.175781 171.441406 159.957031 171.4375 159.972656 172.222656 Z M 159.964844 172.21875 "/><path style=" stroke:none;fill-rule:nonzero;fill:rgb(0%,0%,0%);fill-opacity:1;" d="M 213.417969 180.660156 C 216.210938 185.769531 222.164062 189.003906 227.253906 191.375 C 230.019531 192.652344 232.949219 193.558594 235.695312 194.898438 C 239.75 196.878906 243.113281 200.035156 246.476562 202.984375 C 250.382812 206.410156 254.179688 209.953125 257.875 213.617188 C 258.433594 214.167969 259.292969 213.308594 258.738281 212.757812 C 255.496094 209.558594 252.183594 206.445312 248.796875 203.414062 C 245.699219 200.65625 242.589844 197.722656 239.113281 195.433594 C 236.128906 193.464844 232.742188 192.421875 229.476562 191.035156 C 226.921875 189.957031 224.46875 188.679688 222.113281 187.210938 C 219.179688 185.375 216.179688 183.140625 214.484375 180.058594 C 214.113281 179.371094 213.058594 179.984375 213.433594 180.671875 Z M 213.417969 180.660156 "/><path style=" stroke:none;fill-rule:nonzero;fill:rgb(0%,0%,0%);fill-opacity:1;" d="M 144.460938 172.507812 C 141.921875 172.300781 139.417969 174.917969 137.695312 176.457031 C 136.671875 177.375 135.671875 178.375 134.554688 179.195312 C 132.804688 180.472656 130.757812 181.300781 128.902344 182.414062 C 121.910156 186.613281 116.625 193.144531 109.246094 196.792969 C 108.546875 197.136719 109.164062 198.1875 109.863281 197.84375 C 117 194.328125 122.167969 188.105469 128.820312 183.890625 C 130.628906 182.746094 132.601562 181.894531 134.410156 180.75 C 135.472656 180.039062 136.464844 179.246094 137.390625 178.363281 C 138.542969 177.324219 139.691406 176.261719 140.925781 175.328125 C 141.898438 174.59375 143.171875 173.613281 144.460938 173.71875 C 145.242188 173.785156 145.230469 172.566406 144.460938 172.503906 Z M 144.460938 172.507812 "/><path style=" stroke:none;fill-rule:nonzero;fill:rgb(0%,0%,0%);fill-opacity:1;" d="M 221.734375 143.695312 C 226.496094 143.484375 225.59375 136.886719 224.527344 133.917969 C 224.269531 133.1875 223.085938 133.5 223.351562 134.238281 C 224.097656 136.3125 225.441406 142.316406 221.734375 142.480469 C 220.96875 142.515625 220.949219 143.734375 221.734375 143.695312 Z M 221.734375 143.695312 "/><path style=" stroke:none;fill-rule:nonzero;fill:rgb(0%,0%,0%);fill-opacity:1;" d="M 224.363281 189.304688 C 222.667969 197.71875 227.25 205.582031 227.089844 213.925781 C 226.996094 218.703125 224.554688 222.496094 221.875 226.277344 C 218.9375 230.433594 215.652344 234.335938 212.828125 238.578125 C 212.394531 239.234375 213.445312 239.855469 213.878906 239.195312 C 216.691406 234.953125 219.988281 231.046875 222.929688 226.890625 C 225.484375 223.273438 227.882812 219.601562 228.25 215.082031 C 228.949219 206.457031 223.796875 198.269531 225.535156 189.628906 C 225.691406 188.863281 224.515625 188.539062 224.363281 189.304688 Z M 224.363281 189.304688 "/><g clip-rule="nonzero" clip-path="url(#clip1)"><path style=" stroke:none;fill-rule:nonzero;fill:rgb(0%,0%,0%);fill-opacity:1;" d="M 147.433594 51.128906 C 147.433594 51.128906 147.390625 60.542969 156.75 60.546875 C 156.75 60.546875 147.390625 60.546875 147.433594 69.78125 C 147.433594 69.78125 147.390625 60.542969 137.949219 60.546875 C 137.945312 60.546875 147.433594 60.542969 147.433594 51.128906 Z M 147.433594 51.128906 "/></g><path style=" stroke:none;fill-rule:nonzero;fill:rgb(0%,0%,0%);fill-opacity:1;" d="M 132.683594 77.984375 C 132.683594 77.984375 132.652344 84.773438 139.402344 84.777344 C 139.402344 84.777344 132.652344 84.777344 132.683594 91.4375 C 132.683594 91.4375 132.652344 84.773438 125.839844 84.777344 C 125.839844 84.777344 132.683594 84.773438 132.683594 77.984375 Z M 132.683594 77.984375 "/><g clip-rule="nonzero" clip-path="url(#clip2)"><path style=" stroke:none;fill-rule:nonzero;fill:rgb(0%,0%,0%);fill-opacity:1;" d="M 109.398438 163.773438 C 109.398438 163.773438 109.355469 173.1875 118.710938 173.191406 C 118.710938 173.191406 109.355469 173.191406 109.398438 182.421875 C 109.398438 182.421875 109.355469 173.1875 99.910156 173.191406 C 99.910156 173.191406 109.398438 173.1875 109.398438 163.773438 Z M 109.398438 163.773438 "/></g><path style=" stroke:none;fill-rule:nonzero;fill:rgb(0%,0%,0%);fill-opacity:1;" d="M 127.070312 212.683594 C 127.070312 212.683594 127.039062 219.476562 133.792969 219.476562 C 133.792969 219.476562 127.039062 219.476562 127.070312 226.140625 C 127.070312 226.140625 127.039062 219.476562 120.226562 219.476562 C 120.226562 219.476562 127.070312 219.476562 127.070312 212.683594 Z M 127.070312 212.683594 "/><path style=" stroke:none;fill-rule:nonzero;fill:rgb(0%,0%,0%);fill-opacity:1;" d="M 265.144531 188.449219 C 265.144531 188.449219 265.113281 195.242188 271.863281 195.246094 C 271.863281 195.246094 265.113281 195.246094 265.144531 201.90625 C 265.144531 201.90625 265.113281 195.242188 258.300781 195.246094 C 258.300781 195.246094 265.144531 195.242188 265.144531 188.449219 Z M 265.144531 188.449219 "/><g clip-rule="nonzero" clip-path="url(#clip3)"><path style=" stroke:none;fill-rule:nonzero;fill:rgb(0%,0%,0%);fill-opacity:1;" d="M 271.898438 173.214844 C 271.898438 173.214844 271.878906 176.761719 275.40625 176.761719 C 275.40625 176.761719 271.878906 176.761719 271.898438 180.242188 C 271.898438 180.242188 271.878906 176.761719 268.316406 176.761719 C 268.320312 176.761719 271.898438 176.761719 271.898438 173.214844 Z M 271.898438 173.214844 "/></g><path style=" stroke:none;fill-rule:nonzero;fill:rgb(0%,0%,0%);fill-opacity:1;" d="M 258.34375 100.285156 C 258.34375 100.285156 258.320312 105.292969 263.300781 105.292969 C 263.300781 105.292969 258.320312 105.292969 258.34375 110.203125 C 258.34375 110.203125 258.320312 105.292969 253.300781 105.292969 C 253.300781 105.292969 258.34375 105.292969 258.34375 100.285156 Z M 258.34375 100.285156 "/><path style=" stroke:none;fill-rule:nonzero;fill:rgb(12.159729%,39.608765%,39.99939%);fill-opacity:1;" d="M 250.902344 122.132812 C 250.1875 120.601562 248.53125 120.5 247.023438 120.289062 C 244.390625 119.960938 241.746094 119.792969 239.09375 119.777344 C 236.351562 119.726562 233.609375 119.75 230.867188 119.808594 C 228.25 119.863281 225.417969 119.714844 223.546875 121.851562 C 222.984375 122.503906 222.492188 123.207031 222.074219 123.957031 C 220.640625 124.085938 219.222656 123.996094 217.820312 123.679688 C 216.996094 121.511719 214.664062 120.757812 212.550781 120.4375 C 210.054688 120.09375 207.542969 119.898438 205.023438 119.855469 C 199.476562 119.675781 193.941406 119.855469 188.417969 120.402344 C 187.503906 120.5 186.578125 120.589844 185.675781 120.757812 C 184.144531 121.035156 183.480469 121.796875 183.199219 123.292969 C 182.550781 126.707031 182.082031 130.429688 183.625 133.671875 C 185.136719 136.855469 188.160156 137.902344 191.453125 138.316406 C 195.65625 138.859375 199.875 139.015625 204.109375 138.792969 C 205.789062 138.695312 207.457031 138.4375 208.898438 137.515625 C 210.335938 136.589844 211.367188 135.328125 212.421875 134.066406 C 214.628906 131.421875 218.128906 128.277344 221.351562 131.40625 C 222.460938 132.488281 223.203125 133.910156 223.90625 135.273438 C 224.578125 136.578125 225.160156 138.050781 226.570312 138.714844 C 228.105469 139.433594 230.152344 139.460938 231.808594 139.605469 C 233.78125 139.773438 235.761719 139.824219 237.742188 139.75 C 240.570312 139.648438 243.683594 139.476562 246.316406 138.347656 C 248.136719 137.570312 249.230469 136.03125 249.996094 134.261719 C 250.882812 132.109375 251.394531 129.867188 251.527344 127.542969 C 251.625 125.804688 251.664062 123.753906 250.902344 122.132812 Z M 250.902344 122.132812 "/><g style="fill:rgb(17.649841%,13.328552%,12.548828%);fill-opacity:1;"><g transform="translate(133.698127, 329.344904)"><path style="stroke:none;" d="M 5.390625 -1.6875 C 5.460938 -1.6875 5.53125 -1.660156 5.59375 -1.609375 L 6.15625 -1 C 5.875 -0.644531 5.523438 -0.375 5.109375 -0.1875 C 4.703125 -0.0078125 4.21875 0.078125 3.65625 0.078125 C 3.132812 0.078125 2.671875 -0.0078125 2.265625 -0.1875 C 1.859375 -0.363281 1.507812 -0.609375 1.21875 -0.921875 C 0.9375 -1.234375 0.71875 -1.601562 0.5625 -2.03125 C 0.40625 -2.457031 0.328125 -2.925781 0.328125 -3.4375 C 0.328125 -3.769531 0.363281 -4.085938 0.4375 -4.390625 C 0.507812 -4.703125 0.613281 -4.988281 0.75 -5.25 C 0.894531 -5.507812 1.066406 -5.742188 1.265625 -5.953125 C 1.472656 -6.160156 1.703125 -6.335938 1.953125 -6.484375 C 2.203125 -6.628906 2.472656 -6.738281 2.765625 -6.8125 C 3.066406 -6.894531 3.390625 -6.9375 3.734375 -6.9375 C 3.984375 -6.9375 4.21875 -6.910156 4.4375 -6.859375 C 4.664062 -6.816406 4.878906 -6.753906 5.078125 -6.671875 C 5.273438 -6.597656 5.453125 -6.503906 5.609375 -6.390625 C 5.773438 -6.285156 5.925781 -6.164062 6.0625 -6.03125 L 5.59375 -5.375 C 5.5625 -5.332031 5.519531 -5.296875 5.46875 -5.265625 C 5.425781 -5.234375 5.367188 -5.21875 5.296875 -5.21875 C 5.222656 -5.21875 5.144531 -5.242188 5.0625 -5.296875 C 4.988281 -5.359375 4.894531 -5.421875 4.78125 -5.484375 C 4.675781 -5.546875 4.535156 -5.601562 4.359375 -5.65625 C 4.191406 -5.71875 3.976562 -5.75 3.71875 -5.75 C 3.4375 -5.75 3.175781 -5.695312 2.9375 -5.59375 C 2.695312 -5.488281 2.488281 -5.335938 2.3125 -5.140625 C 2.144531 -4.941406 2.015625 -4.695312 1.921875 -4.40625 C 1.828125 -4.125 1.78125 -3.800781 1.78125 -3.4375 C 1.78125 -3.0625 1.828125 -2.726562 1.921875 -2.4375 C 2.023438 -2.15625 2.164062 -1.914062 2.34375 -1.71875 C 2.53125 -1.519531 2.738281 -1.367188 2.96875 -1.265625 C 3.207031 -1.160156 3.460938 -1.109375 3.734375 -1.109375 C 3.898438 -1.109375 4.046875 -1.113281 4.171875 -1.125 C 4.304688 -1.144531 4.425781 -1.171875 4.53125 -1.203125 C 4.644531 -1.242188 4.75 -1.296875 4.84375 -1.359375 C 4.945312 -1.421875 5.050781 -1.5 5.15625 -1.59375 C 5.1875 -1.613281 5.222656 -1.632812 5.265625 -1.65625 C 5.304688 -1.675781 5.347656 -1.6875 5.390625 -1.6875 Z M 5.390625 -1.6875 "/></g></g><g style="fill:rgb(17.649841%,13.328552%,12.548828%);fill-opacity:1;"><g transform="translate(141.989043, 329.344904)"><path style="stroke:none;" d="M 7.34375 -3.4375 C 7.34375 -2.9375 7.257812 -2.46875 7.09375 -2.03125 C 6.925781 -1.601562 6.6875 -1.234375 6.375 -0.921875 C 6.070312 -0.609375 5.703125 -0.363281 5.265625 -0.1875 C 4.835938 -0.0078125 4.359375 0.078125 3.828125 0.078125 C 3.304688 0.078125 2.828125 -0.0078125 2.390625 -0.1875 C 1.960938 -0.363281 1.59375 -0.609375 1.28125 -0.921875 C 0.976562 -1.234375 0.738281 -1.601562 0.5625 -2.03125 C 0.394531 -2.46875 0.3125 -2.9375 0.3125 -3.4375 C 0.3125 -3.9375 0.394531 -4.398438 0.5625 -4.828125 C 0.738281 -5.253906 0.976562 -5.625 1.28125 -5.9375 C 1.59375 -6.25 1.960938 -6.492188 2.390625 -6.671875 C 2.828125 -6.847656 3.304688 -6.9375 3.828125 -6.9375 C 4.359375 -6.9375 4.835938 -6.847656 5.265625 -6.671875 C 5.703125 -6.492188 6.070312 -6.242188 6.375 -5.921875 C 6.6875 -5.609375 6.925781 -5.238281 7.09375 -4.8125 C 7.257812 -4.382812 7.34375 -3.925781 7.34375 -3.4375 Z M 5.890625 -3.4375 C 5.890625 -3.789062 5.84375 -4.109375 5.75 -4.390625 C 5.65625 -4.679688 5.519531 -4.925781 5.34375 -5.125 C 5.164062 -5.320312 4.945312 -5.472656 4.6875 -5.578125 C 4.4375 -5.691406 4.148438 -5.75 3.828125 -5.75 C 3.503906 -5.75 3.210938 -5.691406 2.953125 -5.578125 C 2.703125 -5.472656 2.488281 -5.320312 2.3125 -5.125 C 2.132812 -4.925781 2 -4.679688 1.90625 -4.390625 C 1.8125 -4.109375 1.765625 -3.789062 1.765625 -3.4375 C 1.765625 -3.070312 1.8125 -2.742188 1.90625 -2.453125 C 2 -2.171875 2.132812 -1.929688 2.3125 -1.734375 C 2.488281 -1.535156 2.703125 -1.382812 2.953125 -1.28125 C 3.210938 -1.175781 3.503906 -1.125 3.828125 -1.125 C 4.148438 -1.125 4.4375 -1.175781 4.6875 -1.28125 C 4.945312 -1.382812 5.164062 -1.535156 5.34375 -1.734375 C 5.519531 -1.929688 5.65625 -2.171875 5.75 -2.453125 C 5.84375 -2.742188 5.890625 -3.070312 5.890625 -3.4375 Z M 5.890625 -3.4375 "/></g></g><g style="fill:rgb(17.649841%,13.328552%,12.548828%);fill-opacity:1;"><g transform="translate(151.716905, 329.344904)"><path style="stroke:none;" d="M 4.78125 -1.15625 L 4.78125 0 L 0.71875 0 L 0.71875 -6.859375 L 2.140625 -6.859375 L 2.140625 -1.15625 Z M 4.78125 -1.15625 "/></g></g><g style="fill:rgb(17.649841%,13.328552%,12.548828%);fill-opacity:1;"><g transform="translate(158.712681, 329.344904)"><path style="stroke:none;" d="M 7.34375 -3.4375 C 7.34375 -2.9375 7.257812 -2.46875 7.09375 -2.03125 C 6.925781 -1.601562 6.6875 -1.234375 6.375 -0.921875 C 6.070312 -0.609375 5.703125 -0.363281 5.265625 -0.1875 C 4.835938 -0.0078125 4.359375 0.078125 3.828125 0.078125 C 3.304688 0.078125 2.828125 -0.0078125 2.390625 -0.1875 C 1.960938 -0.363281 1.59375 -0.609375 1.28125 -0.921875 C 0.976562 -1.234375 0.738281 -1.601562 0.5625 -2.03125 C 0.394531 -2.46875 0.3125 -2.9375 0.3125 -3.4375 C 0.3125 -3.9375 0.394531 -4.398438 0.5625 -4.828125 C 0.738281 -5.253906 0.976562 -5.625 1.28125 -5.9375 C 1.59375 -6.25 1.960938 -6.492188 2.390625 -6.671875 C 2.828125 -6.847656 3.304688 -6.9375 3.828125 -6.9375 C 4.359375 -6.9375 4.835938 -6.847656 5.265625 -6.671875 C 5.703125 -6.492188 6.070312 -6.242188 6.375 -5.921875 C 6.6875 -5.609375 6.925781 -5.238281 7.09375 -4.8125 C 7.257812 -4.382812 7.34375 -3.925781 7.34375 -3.4375 Z M 5.890625 -3.4375 C 5.890625 -3.789062 5.84375 -4.109375 5.75 -4.390625 C 5.65625 -4.679688 5.519531 -4.925781 5.34375 -5.125 C 5.164062 -5.320312 4.945312 -5.472656 4.6875 -5.578125 C 4.4375 -5.691406 4.148438 -5.75 3.828125 -5.75 C 3.503906 -5.75 3.210938 -5.691406 2.953125 -5.578125 C 2.703125 -5.472656 2.488281 -5.320312 2.3125 -5.125 C 2.132812 -4.925781 2 -4.679688 1.90625 -4.390625 C 1.8125 -4.109375 1.765625 -3.789062 1.765625 -3.4375 C 1.765625 -3.070312 1.8125 -2.742188 1.90625 -2.453125 C 2 -2.171875 2.132812 -1.929688 2.3125 -1.734375 C 2.488281 -1.535156 2.703125 -1.382812 2.953125 -1.28125 C 3.210938 -1.175781 3.503906 -1.125 3.828125 -1.125 C 4.148438 -1.125 4.4375 -1.175781 4.6875 -1.28125 C 4.945312 -1.382812 5.164062 -1.535156 5.34375 -1.734375 C 5.519531 -1.929688 5.65625 -2.171875 5.75 -2.453125 C 5.84375 -2.742188 5.890625 -3.070312 5.890625 -3.4375 Z M 5.890625 -3.4375 "/></g></g><g style="fill:rgb(17.649841%,13.328552%,12.548828%);fill-opacity:1;"><g transform="translate(168.440543, 329.344904)"><path style="stroke:none;" d="M 2.859375 -3.609375 C 3.085938 -3.609375 3.285156 -3.632812 3.453125 -3.6875 C 3.617188 -3.75 3.753906 -3.832031 3.859375 -3.9375 C 3.972656 -4.039062 4.054688 -4.160156 4.109375 -4.296875 C 4.160156 -4.441406 4.1875 -4.59375 4.1875 -4.75 C 4.1875 -5.070312 4.078125 -5.320312 3.859375 -5.5 C 3.640625 -5.6875 3.3125 -5.78125 2.875 -5.78125 L 2.140625 -5.78125 L 2.140625 -3.609375 Z M 6.1875 0 L 4.90625 0 C 4.664062 0 4.492188 -0.09375 4.390625 -0.28125 L 3.078125 -2.375 C 3.023438 -2.457031 2.96875 -2.515625 2.90625 -2.546875 C 2.84375 -2.585938 2.75 -2.609375 2.625 -2.609375 L 2.140625 -2.609375 L 2.140625 0 L 0.71875 0 L 0.71875 -6.859375 L 2.875 -6.859375 C 3.351562 -6.859375 3.757812 -6.804688 4.09375 -6.703125 C 4.4375 -6.609375 4.71875 -6.472656 4.9375 -6.296875 C 5.15625 -6.117188 5.3125 -5.90625 5.40625 -5.65625 C 5.507812 -5.414062 5.5625 -5.148438 5.5625 -4.859375 C 5.5625 -4.628906 5.53125 -4.410156 5.46875 -4.203125 C 5.40625 -4.003906 5.3125 -3.820312 5.1875 -3.65625 C 5.0625 -3.488281 4.910156 -3.335938 4.734375 -3.203125 C 4.554688 -3.078125 4.351562 -2.976562 4.125 -2.90625 C 4.21875 -2.851562 4.300781 -2.789062 4.375 -2.71875 C 4.457031 -2.644531 4.53125 -2.5625 4.59375 -2.46875 Z M 6.1875 0 "/></g></g><g style="fill:rgb(17.649841%,13.328552%,12.548828%);fill-opacity:1;"><g transform="translate(176.641652, 329.344904)"><path style="stroke:none;" d=""/></g></g><g style="fill:rgb(17.649841%,13.328552%,12.548828%);fill-opacity:1;"><g transform="translate(180.947886, 329.344904)"><path style="stroke:none;" d="M 2.25 -3.140625 C 2.03125 -2.972656 1.875 -2.796875 1.78125 -2.609375 C 1.6875 -2.421875 1.640625 -2.222656 1.640625 -2.015625 C 1.640625 -1.847656 1.664062 -1.695312 1.71875 -1.5625 C 1.78125 -1.4375 1.859375 -1.328125 1.953125 -1.234375 C 2.046875 -1.140625 2.15625 -1.066406 2.28125 -1.015625 C 2.414062 -0.972656 2.554688 -0.953125 2.703125 -0.953125 C 2.941406 -0.953125 3.164062 -0.984375 3.375 -1.046875 C 3.59375 -1.117188 3.785156 -1.222656 3.953125 -1.359375 Z M 6.875 0 L 5.59375 0 C 5.53125 0 5.472656 0 5.421875 0 C 5.367188 -0.0078125 5.320312 -0.0234375 5.28125 -0.046875 C 5.238281 -0.0664062 5.195312 -0.09375 5.15625 -0.125 C 5.113281 -0.15625 5.070312 -0.191406 5.03125 -0.234375 L 4.640625 -0.640625 C 4.335938 -0.410156 4.003906 -0.234375 3.640625 -0.109375 C 3.273438 0.015625 2.882812 0.078125 2.46875 0.078125 C 2.195312 0.078125 1.929688 0.03125 1.671875 -0.0625 C 1.421875 -0.15625 1.191406 -0.285156 0.984375 -0.453125 C 0.785156 -0.628906 0.625 -0.835938 0.5 -1.078125 C 0.375 -1.328125 0.3125 -1.601562 0.3125 -1.90625 C 0.3125 -2.113281 0.34375 -2.3125 0.40625 -2.5 C 0.476562 -2.695312 0.570312 -2.875 0.6875 -3.03125 C 0.8125 -3.195312 0.957031 -3.34375 1.125 -3.46875 C 1.289062 -3.601562 1.472656 -3.71875 1.671875 -3.8125 C 1.515625 -4.050781 1.398438 -4.28125 1.328125 -4.5 C 1.253906 -4.71875 1.21875 -4.9375 1.21875 -5.15625 C 1.21875 -5.394531 1.257812 -5.617188 1.34375 -5.828125 C 1.4375 -6.046875 1.566406 -6.238281 1.734375 -6.40625 C 1.898438 -6.570312 2.101562 -6.703125 2.34375 -6.796875 C 2.59375 -6.890625 2.875 -6.9375 3.1875 -6.9375 C 3.476562 -6.9375 3.734375 -6.890625 3.953125 -6.796875 C 4.179688 -6.710938 4.375 -6.597656 4.53125 -6.453125 C 4.695312 -6.304688 4.820312 -6.140625 4.90625 -5.953125 C 5 -5.773438 5.054688 -5.582031 5.078125 -5.375 L 4.234375 -5.203125 C 4.085938 -5.171875 3.976562 -5.234375 3.90625 -5.390625 C 3.84375 -5.554688 3.753906 -5.691406 3.640625 -5.796875 C 3.523438 -5.898438 3.375 -5.953125 3.1875 -5.953125 C 3.0625 -5.953125 2.953125 -5.929688 2.859375 -5.890625 C 2.765625 -5.847656 2.6875 -5.789062 2.625 -5.71875 C 2.5625 -5.644531 2.507812 -5.5625 2.46875 -5.46875 C 2.4375 -5.375 2.421875 -5.273438 2.421875 -5.171875 C 2.421875 -5.078125 2.429688 -4.988281 2.453125 -4.90625 C 2.472656 -4.820312 2.5 -4.738281 2.53125 -4.65625 C 2.570312 -4.570312 2.625 -4.484375 2.6875 -4.390625 C 2.757812 -4.304688 2.84375 -4.21875 2.9375 -4.125 L 4.703125 -2.28125 C 4.796875 -2.46875 4.867188 -2.664062 4.921875 -2.875 C 4.984375 -3.09375 5.023438 -3.316406 5.046875 -3.546875 C 5.054688 -3.617188 5.082031 -3.679688 5.125 -3.734375 C 5.175781 -3.785156 5.238281 -3.8125 5.3125 -3.8125 L 6.140625 -3.8125 C 6.140625 -3.375 6.078125 -2.957031 5.953125 -2.5625 C 5.828125 -2.175781 5.65625 -1.820312 5.4375 -1.5 Z M 6.875 0 "/></g></g><g style="fill:rgb(17.649841%,13.328552%,12.548828%);fill-opacity:1;"><g transform="translate(189.8911, 329.344904)"><path style="stroke:none;" d=""/></g></g><g style="fill:rgb(17.649841%,13.328552%,12.548828%);fill-opacity:1;"><g transform="translate(194.19733, 329.344904)"><path style="stroke:none;" d="M 5.578125 -5.71875 L 3.5625 -5.71875 L 3.5625 0 L 2.140625 0 L 2.140625 -5.71875 L 0.140625 -5.71875 L 0.140625 -6.859375 L 5.578125 -6.859375 Z M 5.578125 -5.71875 "/></g></g><g style="fill:rgb(17.649841%,13.328552%,12.548828%);fill-opacity:1;"><g transform="translate(201.968303, 329.344904)"><path style="stroke:none;" d="M 6.59375 -6.859375 L 6.59375 0 L 5.171875 0 L 5.171875 -2.953125 L 2.140625 -2.953125 L 2.140625 0 L 0.71875 0 L 0.71875 -6.859375 L 2.140625 -6.859375 L 2.140625 -3.953125 L 5.171875 -3.953125 L 5.171875 -6.859375 Z M 6.59375 -6.859375 "/></g></g><g style="fill:rgb(17.649841%,13.328552%,12.548828%);fill-opacity:1;"><g transform="translate(211.341653, 329.344904)"><path style="stroke:none;" d="M 2.859375 -3.609375 C 3.085938 -3.609375 3.285156 -3.632812 3.453125 -3.6875 C 3.617188 -3.75 3.753906 -3.832031 3.859375 -3.9375 C 3.972656 -4.039062 4.054688 -4.160156 4.109375 -4.296875 C 4.160156 -4.441406 4.1875 -4.59375 4.1875 -4.75 C 4.1875 -5.070312 4.078125 -5.320312 3.859375 -5.5 C 3.640625 -5.6875 3.3125 -5.78125 2.875 -5.78125 L 2.140625 -5.78125 L 2.140625 -3.609375 Z M 6.1875 0 L 4.90625 0 C 4.664062 0 4.492188 -0.09375 4.390625 -0.28125 L 3.078125 -2.375 C 3.023438 -2.457031 2.96875 -2.515625 2.90625 -2.546875 C 2.84375 -2.585938 2.75 -2.609375 2.625 -2.609375 L 2.140625 -2.609375 L 2.140625 0 L 0.71875 0 L 0.71875 -6.859375 L 2.875 -6.859375 C 3.351562 -6.859375 3.757812 -6.804688 4.09375 -6.703125 C 4.4375 -6.609375 4.71875 -6.472656 4.9375 -6.296875 C 5.15625 -6.117188 5.3125 -5.90625 5.40625 -5.65625 C 5.507812 -5.414062 5.5625 -5.148438 5.5625 -4.859375 C 5.5625 -4.628906 5.53125 -4.410156 5.46875 -4.203125 C 5.40625 -4.003906 5.3125 -3.820312 5.1875 -3.65625 C 5.0625 -3.488281 4.910156 -3.335938 4.734375 -3.203125 C 4.554688 -3.078125 4.351562 -2.976562 4.125 -2.90625 C 4.21875 -2.851562 4.300781 -2.789062 4.375 -2.71875 C 4.457031 -2.644531 4.53125 -2.5625 4.59375 -2.46875 Z M 6.1875 0 "/></g></g><g style="fill:rgb(17.649841%,13.328552%,12.548828%);fill-opacity:1;"><g transform="translate(219.542759, 329.344904)"><path style="stroke:none;" d="M 2.140625 -5.75 L 2.140625 -3.984375 L 4.4375 -3.984375 L 4.4375 -2.90625 L 2.140625 -2.90625 L 2.140625 -1.109375 L 5.078125 -1.109375 L 5.078125 0 L 0.71875 0 L 0.71875 -6.859375 L 5.078125 -6.859375 L 5.078125 -5.75 Z M 2.140625 -5.75 "/></g></g><g style="fill:rgb(17.649841%,13.328552%,12.548828%);fill-opacity:1;"><g transform="translate(227.03012, 329.344904)"><path style="stroke:none;" d="M 4.34375 -2.609375 L 3.59375 -4.703125 C 3.550781 -4.816406 3.503906 -4.945312 3.453125 -5.09375 C 3.410156 -5.238281 3.363281 -5.398438 3.3125 -5.578125 C 3.269531 -5.398438 3.222656 -5.234375 3.171875 -5.078125 C 3.128906 -4.929688 3.085938 -4.800781 3.046875 -4.6875 L 2.296875 -2.609375 Z M 6.71875 0 L 5.625 0 C 5.5 0 5.394531 -0.0234375 5.3125 -0.078125 C 5.238281 -0.140625 5.179688 -0.21875 5.140625 -0.3125 L 4.6875 -1.625 L 1.953125 -1.625 L 1.484375 -0.3125 C 1.453125 -0.226562 1.394531 -0.15625 1.3125 -0.09375 C 1.238281 -0.03125 1.144531 0 1.03125 0 L -0.078125 0 L 2.59375 -6.859375 L 4.046875 -6.859375 Z M 6.71875 0 "/></g></g><g style="fill:rgb(17.649841%,13.328552%,12.548828%);fill-opacity:1;"><g transform="translate(235.72754, 329.344904)"><path style="stroke:none;" d="M 6.875 -3.4375 C 6.875 -2.9375 6.785156 -2.472656 6.609375 -2.046875 C 6.441406 -1.628906 6.203125 -1.269531 5.890625 -0.96875 C 5.585938 -0.664062 5.21875 -0.425781 4.78125 -0.25 C 4.351562 -0.0820312 3.878906 0 3.359375 0 L 0.71875 0 L 0.71875 -6.859375 L 3.359375 -6.859375 C 3.878906 -6.859375 4.351562 -6.769531 4.78125 -6.59375 C 5.21875 -6.425781 5.585938 -6.191406 5.890625 -5.890625 C 6.203125 -5.585938 6.441406 -5.222656 6.609375 -4.796875 C 6.785156 -4.378906 6.875 -3.925781 6.875 -3.4375 Z M 5.40625 -3.4375 C 5.40625 -3.789062 5.359375 -4.109375 5.265625 -4.390625 C 5.171875 -4.679688 5.035156 -4.925781 4.859375 -5.125 C 4.679688 -5.320312 4.46875 -5.472656 4.21875 -5.578125 C 3.96875 -5.691406 3.679688 -5.75 3.359375 -5.75 L 2.140625 -5.75 L 2.140625 -1.109375 L 3.359375 -1.109375 C 3.679688 -1.109375 3.96875 -1.160156 4.21875 -1.265625 C 4.46875 -1.367188 4.679688 -1.519531 4.859375 -1.71875 C 5.035156 -1.925781 5.171875 -2.171875 5.265625 -2.453125 C 5.359375 -2.742188 5.40625 -3.070312 5.40625 -3.4375 Z M 5.40625 -3.4375 "/></g></g><g style="fill:rgb(17.649841%,13.328552%,12.548828%);fill-opacity:1;"><g transform="translate(244.982722, 329.344904)"><path style="stroke:none;" d="M 4.4375 -5.546875 C 4.394531 -5.472656 4.347656 -5.421875 4.296875 -5.390625 C 4.253906 -5.359375 4.195312 -5.34375 4.125 -5.34375 C 4.050781 -5.34375 3.972656 -5.363281 3.890625 -5.40625 C 3.816406 -5.457031 3.722656 -5.507812 3.609375 -5.5625 C 3.503906 -5.625 3.382812 -5.675781 3.25 -5.71875 C 3.113281 -5.769531 2.953125 -5.796875 2.765625 -5.796875 C 2.429688 -5.796875 2.179688 -5.722656 2.015625 -5.578125 C 1.859375 -5.429688 1.78125 -5.238281 1.78125 -5 C 1.78125 -4.851562 1.820312 -4.726562 1.90625 -4.625 C 2 -4.53125 2.117188 -4.445312 2.265625 -4.375 C 2.410156 -4.300781 2.578125 -4.234375 2.765625 -4.171875 C 2.953125 -4.117188 3.140625 -4.054688 3.328125 -3.984375 C 3.523438 -3.921875 3.71875 -3.84375 3.90625 -3.75 C 4.09375 -3.65625 4.257812 -3.539062 4.40625 -3.40625 C 4.550781 -3.269531 4.664062 -3.097656 4.75 -2.890625 C 4.84375 -2.691406 4.890625 -2.453125 4.890625 -2.171875 C 4.890625 -1.859375 4.835938 -1.566406 4.734375 -1.296875 C 4.628906 -1.023438 4.472656 -0.785156 4.265625 -0.578125 C 4.054688 -0.378906 3.800781 -0.21875 3.5 -0.09375 C 3.195312 0.0195312 2.859375 0.078125 2.484375 0.078125 C 2.265625 0.078125 2.046875 0.0507812 1.828125 0 C 1.609375 -0.0390625 1.398438 -0.0976562 1.203125 -0.171875 C 1.003906 -0.253906 0.816406 -0.347656 0.640625 -0.453125 C 0.460938 -0.566406 0.304688 -0.691406 0.171875 -0.828125 L 0.59375 -1.5 C 0.625 -1.550781 0.664062 -1.59375 0.71875 -1.625 C 0.78125 -1.65625 0.84375 -1.671875 0.90625 -1.671875 C 1 -1.671875 1.09375 -1.640625 1.1875 -1.578125 C 1.28125 -1.515625 1.382812 -1.441406 1.5 -1.359375 C 1.625 -1.285156 1.765625 -1.21875 1.921875 -1.15625 C 2.085938 -1.09375 2.285156 -1.0625 2.515625 -1.0625 C 2.847656 -1.0625 3.101562 -1.132812 3.28125 -1.28125 C 3.46875 -1.4375 3.5625 -1.664062 3.5625 -1.96875 C 3.5625 -2.144531 3.515625 -2.285156 3.421875 -2.390625 C 3.335938 -2.492188 3.222656 -2.582031 3.078125 -2.65625 C 2.929688 -2.726562 2.765625 -2.789062 2.578125 -2.84375 C 2.390625 -2.894531 2.195312 -2.953125 2 -3.015625 C 1.8125 -3.078125 1.625 -3.148438 1.4375 -3.234375 C 1.25 -3.328125 1.082031 -3.445312 0.9375 -3.59375 C 0.789062 -3.738281 0.671875 -3.914062 0.578125 -4.125 C 0.492188 -4.34375 0.453125 -4.613281 0.453125 -4.9375 C 0.453125 -5.1875 0.5 -5.429688 0.59375 -5.671875 C 0.695312 -5.910156 0.847656 -6.125 1.046875 -6.3125 C 1.242188 -6.5 1.484375 -6.648438 1.765625 -6.765625 C 2.046875 -6.878906 2.375 -6.9375 2.75 -6.9375 C 3.15625 -6.9375 3.535156 -6.867188 3.890625 -6.734375 C 4.242188 -6.609375 4.539062 -6.429688 4.78125 -6.203125 Z M 4.4375 -5.546875 "/></g></g></g></svg>